<?xml version="1.0" standalone="no"?>
<!DOCTYPE svg PUBLIC "-//W3C//DTD SVG 1.1//EN" "http://www.w3.org/Graphics/SVG/1.1/DTD/svg11.dtd" >
<svg xmlns="http://www.w3.org/2000/svg" xmlns:xlink="http://www.w3.org/1999/xlink" version="1.1">
<metadata></metadata>
<defs>
<font id="herr_von_muellerhoffregular" horiz-adv-x="645" >
<font-face units-per-em="2048" ascent="1638" descent="-410" />
<missing-glyph horiz-adv-x="450" />
<glyph horiz-adv-x="2048" />
<glyph horiz-adv-x="2048" />
<glyph unicode="&#xd;" horiz-adv-x="681" />
<glyph unicode=" "  horiz-adv-x="450" />
<glyph unicode="&#x09;" horiz-adv-x="450" />
<glyph unicode="&#xa0;" horiz-adv-x="450" />
<glyph unicode="!" d="M86 18.5q0 30.5 29.5 58t51 27.5t32 -12t10.5 -27.5t-27.5 -46t-61.5 -30.5t-34 30.5zM256 240v8q223 276 477.5 605t317.5 419q29 41 47 41t18 -50.5t-250 -364.5t-559 -669q-23 -23 -37 -22.5t-14 33.5z" />
<glyph unicode="&#x22;" horiz-adv-x="598" d="M412 842q106 102 141 149t60.5 84t38 53.5t26.5 16.5t24.5 -16.5t10.5 -26.5t-9.5 -20.5t-31 -31t-48 -46t-74.5 -70.5t-84 -80t-45 -35t-9 23zM555 842q106 102 141 149t60.5 84t38 53.5t27 16.5t24.5 -16.5t10 -26.5t-9 -20.5t-30.5 -31t-48.5 -46t-75 -70.5t-84 -80 t-45 -35t-9 23z" />
<glyph unicode="#" horiz-adv-x="1058" d="M166 283q0 12 14 18l279 6q43 57 86 111h-29q-188 0 -278 2q-27 2 -27 10q0 12 14 19q303 8 350 8l160 213q14 23 25.5 22.5t11.5 -28t-139 -205.5l139 6q80 101 154 205q14 23 25.5 22.5t11.5 -27t-134 -198.5l199 8q33 0 33 -10t-15.5 -24.5t-254.5 -20.5 q-74 -92 -84 -103q233 8 276 15h12q27 0 27 -10.5t-20.5 -25.5t-329.5 -22q-45 -55 -164 -192q-16 -12 -23.5 -12t-7.5 22l146 180h-144q-111 -131 -164 -190q-12 -12 -20 -12t-8 22q16 20 66 83t77 97h-237q-27 2 -27 11zM510 309l143 4l84 107q-45 -2 -139 -2 q-27 -35 -88 -109z" />
<glyph unicode="$" d="M-35 -225q0 14 105 149q-72 20 -72 93t89 166t177 93q25 0 25 -21.5t-25.5 -46t-43 -24.5t-17.5 9q0 2 19.5 13t19.5 15t-17 4q-57 0 -118.5 -75.5t-61.5 -139.5q0 -72 88 -71q164 0 264.5 132t100.5 263t-45 277.5t-45 217.5q0 100 142 192.5t255 92.5h6q37 49 63 94 q51 84 62 84q14 0 14 -37q0 -14 -102 -147q41 -14 41 -55q0 -66 -106.5 -167.5t-200.5 -109.5q-29 0 -29 27q0 16 13.5 35.5t27.5 21.5q12 0 12 -14q0 -2 -8 -12q70 8 170 89t100 125t-65 44q-96 0 -212 -77t-116 -164t53.5 -250t53.5 -232q0 -184 -146.5 -317.5 t-310.5 -133.5h-21q-57 -78 -75 -111q-37 -70 -50.5 -69.5t-13.5 37.5z" />
<glyph unicode="%" horiz-adv-x="1054" d="M80 -35.5q0 15.5 4 23.5q119 129 264.5 298t192.5 229t123.5 157.5t153.5 203t123 170t51 73.5t7 16q8 12 16.5 12t14.5 -11.5t6 -21.5t-4 -16q-211 -311 -450 -600q-96 -115 -447 -514q-23 -35 -41 -35q-14 0 -14 15.5zM98 554q0 110 60.5 237t179.5 228t254 101 q33 0 33 -43t-60.5 -112.5t-120.5 -69.5q-18 0 -18 12.5t9 24.5t15.5 12t6.5 -8l-2 -10q35 4 91 65.5t56 87t-22 25.5q-92 0 -200 -108.5t-175.5 -243t-67.5 -213t56 -78.5q115 0 271.5 182t178.5 383q0 23 6 23q8 0 8 -52q0 -102 -58 -228t-172 -225.5t-245 -99.5 q-84 0 -84 110zM541 83q0 110 60.5 236.5t179 228t253.5 101.5q33 0 33 -43t-60.5 -112.5t-119.5 -69.5q-18 0 -18.5 12.5t9 24.5t15.5 12t6 -8l-2 -10q35 4 91 65.5t56 87t-22 25.5q-92 0 -199.5 -108.5t-175 -243t-67.5 -213t55 -78.5q115 0 271.5 182t178.5 383 q0 23 7 23q8 0 8 -52q0 -102 -58.5 -228t-172 -225.5t-244.5 -99.5q-84 0 -84 110z" />
<glyph unicode="&#x26;" horiz-adv-x="1042" d="M-20 45q0 150 155.5 351.5t384.5 314.5q-74 -18 -125 -19q-162 0 -162 117q0 82 83 193.5t214.5 215t319.5 175t375 71.5q86 0 86 -43q0 -61 -145.5 -157.5t-243.5 -96.5q-29 0 -29 32t43 68t54 36t11 -9.5t-19 -21.5t-19 -21.5t8 -9.5q53 0 178 79t125 112q0 14 -27 14 q-166 0 -343 -78t-304 -185.5t-210 -218t-83 -180t84 -69.5q168 0 375 137q31 18 62.5 39.5t38.5 27t13.5 5.5t6.5 -17v-6q0 -18 -158 -110l-53 -33q-238 -113 -439.5 -352.5t-201.5 -378.5q0 -86 92 -86q80 0 199.5 62.5t246.5 160.5q227 178 367 313q-6 4 -31.5 25.5 t-36 29t-32.5 21.5q-39 20 -99 20q-139 0 -257.5 -122.5t-118.5 -200.5q0 -25 20 -25q57 0 140 88t116 166q10 18 14 19q12 0 13 -11q0 -57 -114 -177t-194 -120q-57 0 -57 52q0 100 157.5 236t350.5 136q49 0 76.5 -15t36 -19.5t39 -27t32.5 -24.5q137 117 250 117 q59 0 95 -32.5t36 -83t-53 -89.5t-164.5 -39t-191.5 58q-152 -147 -328 -285q-340 -268 -514 -268q-145 0 -145 139zM1022 510q109 -74 215 -74q43 0 67.5 25.5t24.5 59.5t-25.5 59.5t-72.5 25.5q-88 0 -209 -96z" />
<glyph unicode="'" horiz-adv-x="454" d="M412 834v8q106 102 141 149t60.5 84t38 53.5t26.5 16.5t24.5 -16.5t10.5 -26.5t-9.5 -20.5t-31 -31t-48 -46t-74.5 -70.5t-84 -80t-45 -34.5t-9 14.5z" />
<glyph unicode="(" horiz-adv-x="518" d="M121 140q0 169 98 396.5t247.5 418t332 338t344.5 202.5q35 0 35 -12q0 -4 -11 -8q-193 -78 -377 -251t-315 -378t-211 -424t-80 -393q0 -96 23 -164q2 -4 2 -19.5t-11.5 -15.5t-21.5 18q-55 123 -55 292z" />
<glyph unicode=")" horiz-adv-x="876" d="M-8 -156q0 4 10 9q193 78 377 250.5t315 377.5t211 424t80 393q0 96 -22 164q-2 4 -2 19.5t11 15.5t21 -18q55 -123 55.5 -292t-98 -396.5t-248 -418t-331.5 -338t-344 -202.5q-35 0 -35 12z" />
<glyph unicode="*" horiz-adv-x="753" d="M252 518q0 25 27.5 38t125 42t148.5 45q-186 82 -186 115q0 27 39 30q20 0 50.5 -22.5t108.5 -106.5q51 143 78 191.5t53 50.5h2q25 0 25 -20q0 -14 -133 -222q254 123 278.5 123t24.5 -18q0 -25 -27.5 -38t-97.5 -33.5t-85 -25.5t-41 -12.5t-50 -15.5q186 -82 186 -115 q0 -27 -30 -28h-5q-29 0 -55 20q-28 23 -108 107q-51 -143 -78 -191.5t-53 -50.5h-3q-25 0 -24 20q0 14 133 222q-254 -123 -278.5 -123t-24.5 18z" />
<glyph unicode="+" horiz-adv-x="819" d="M221 492q0 16 27 20h10l59 2q68 0 179 8q63 127 110 223q8 12 17 13q25 -10 24.5 -29.5t-29 -73t-71.5 -131.5q14 0 215 15q16 0 20 -13q0 -18 -14 -29.5t-62.5 -14.5t-185.5 -3l-121 -207q-4 -16 -17 -16t-13 12q0 6 14 37t51 98.5t41 75.5h-6l-221 2q-25 0 -27 11z" />
<glyph unicode="," horiz-adv-x="288" d="M-31 -139q0 4 15 10q25 4 83 39t58 74q-55 8 -55 40.5t24.5 57t55.5 24.5q37 0 36 -65q0 -33 -20.5 -70t-48.5 -57q-57 -45 -107 -57l-20 -4q-20 0 -21 8z" />
<glyph unicode="-" horiz-adv-x="1024" d="M186 240q0 16 33 20l47 2q55 0 357 12l239 13q23 0 25 -13q0 -18 -17.5 -29.5t-88 -14.5t-285.5 -3l-277 2q-31 0 -33 11z" />
<glyph unicode="." horiz-adv-x="280" d="M66 18.5q0 30.5 29.5 58t51 27.5t31.5 -12t10 -27.5t-27.5 -46t-61 -30.5t-33.5 30.5z" />
<glyph unicode="/" horiz-adv-x="628" d="M37 -43q363 400 1266 1692q29 41 47 41t18 -52q0 -16 -239.5 -348t-556 -745.5t-484.5 -605.5q-23 -23 -37 -23t-14 33v8z" />
<glyph unicode="0" horiz-adv-x="827" d="M41 111q0 94 40 217t115.5 247.5t172 231t222.5 174.5t253 68q57 0 57 -58q0 -84 -98 -198.5t-199 -114.5q-33 0 -33 24q0 18 14.5 38t27 20t12.5 -15l-4 -14q55 2 148 105.5t93 158.5q0 31 -35 31q-152 0 -327.5 -179t-288.5 -402.5t-113 -364.5q0 -117 89 -117t209 82 t231.5 209t198 300t104.5 339q0 43 13 43t13 -74q0 -164 -108.5 -378t-297 -379.5t-380.5 -165.5q-129 0 -129 172z" />
<glyph unicode="1" horiz-adv-x="497" d="M66 -78q0 8 12 26.5t28.5 40t275.5 475.5t300 521q-111 -98 -261.5 -198.5t-246.5 -100.5q-12 0 -12 7t7 14.5t15 7.5q76 0 209 84t228.5 168t109.5 108q14 16 41 23q27 0 27 -21q0 -8 -13 -33q-49 -82 -194 -329q-336 -573 -479 -770q-23 -27 -35 -27l-2 -2q-10 0 -10 6 z" />
<glyph unicode="2" horiz-adv-x="778" d="M-247.5 -73.5q-0.5 24.5 65 91t179.5 126t220 59.5h4q248 197 424 414t176 364q0 33 -11 44t-42 11q-113 0 -244 -98t-211 -209t-80 -166q0 -27 25 -26q66 0 161 62.5t159 125.5l61 61q8 8 19.5 8.5t11.5 -12.5q0 -4 -4 -12q-49 -53 -129 -121q-166 -139 -293 -139 q-61 0 -62 63q0 55 49.5 137.5t127 160t189 134t220.5 56.5q51 0 78.5 -25.5t27.5 -99.5q0 -125 -170.5 -343t-408.5 -388q-6 -4 -15.5 -12.5t-11.5 -8.5q27 -12 128.5 -86.5t164 -74.5t133 24.5t113.5 48.5l41 25q8 4 17 4t9 -6t-12 -16.5t-43 -30t-121 -53t-163.5 -33.5 t-133 30.5t-112.5 73.5t-80 55q-367 -244 -438 -243q-18 0 -18.5 24.5zM-221 -53.5q0 -14.5 8 -14.5q162 63 375 226q-74 0 -168 -47.5t-154.5 -98.5t-60.5 -65.5z" />
<glyph unicode="3" d="M-147 -16q0 63 142 172.5t222 109.5q18 0 18.5 -21.5t-30.5 -46t-40 -24.5t-9 8q0 4 18.5 12.5t18.5 14.5t-15 6q-39 0 -166 -99.5t-127 -138.5q0 -14 23 -14q119 0 259 76t246.5 178t178.5 204.5t72 154t-50 51.5q-125 0 -241 -78l-19 -12q-6 -6 -10 -6.5t-4 10.5 q0 14 61 51l21 12q145 84 270 219t125 209q0 47 -63 47q-102 0 -237.5 -90t-223.5 -182q-12 -12 -25.5 -12t-13.5 5t2 7q287 293 512 293q104 0 104 -78t-95 -187.5t-257 -201.5q51 14 92 14q100 0 101 -82q0 -70 -72 -174t-181.5 -203.5t-259 -170t-286.5 -70.5 q-61 0 -61 37z" />
<glyph unicode="4" horiz-adv-x="821" d="M-59 238q0 35 66.5 90t142.5 67q137 147 296.5 352t180.5 257q-6 -6 -14.5 -6.5t-12.5 1.5q0 12 36 41t50 29q20 0 21 -25q0 -43 -169 -260t-333 -385q70 -2 150.5 -23.5t107.5 -35.5t29 -14q379 666 388 676t35 16q27 0 27 -21q0 -8 -12 -32q-55 -90 -188.5 -317.5 t-204.5 -346.5q109 -63 143 -63q66 0 121 52t55 85q0 10 -16.5 10t-46 -30.5t-52.5 -63.5l-20 -31q-12 0 -12 8q0 31 54 88.5t88 57.5t34 -27q0 -49 -74 -115.5t-162 -66.5q-33 0 -139 55q-102 -168 -207 -315q-23 -27 -35 -27l-2 -2q-10 0 -10 6q0 8 12.5 26.5t36 52.5 t162.5 282q-180 92 -287 92q-160 -156 -217 -156q-23 0 -22 19zM-43 258q0 -14 10 -14q35 0 158 127q-59 -14 -113.5 -56.5t-54.5 -56.5z" />
<glyph unicode="5" horiz-adv-x="624" d="M-162 -16q0 63 142.5 172.5t222.5 109.5q18 0 18 -21.5t-30.5 -46t-40 -24.5t-9.5 8q0 4 18.5 12.5t18.5 14.5t-14 6q-39 0 -166 -99.5t-127 -138.5q0 -14 23 -14q119 0 253 76t232 177t163.5 202.5t65.5 159.5q0 72 -94 71q-68 0 -153 -34.5t-138 -82.5q-10 0 -10 17.5 t254 482.5q31 47 40 47t21 -12q43 -39 140 -39q80 0 151 21l27 6q12 0 12 -8q0 -14 -14 -19q-92 -39 -190.5 -38.5t-161.5 16.5l-211 -400q164 78 262 78q119 0 119 -117q0 -55 -41 -135t-117 -164t-168 -156.5t-209 -118.5t-227 -46q-61 0 -62 37z" />
<glyph unicode="6" horiz-adv-x="700" d="M-14 49q0 182 269 511t640 538q6 4 14.5 4t8.5 -5t-15 -14q-289 -180 -580.5 -535t-291.5 -511q0 -70 71 -70q123 0 266.5 120t234.5 265.5t91 231.5q0 63 -57 63q-43 0 -101.5 -38t-102.5 -79t-146 -143q-14 -14 -23.5 -14t-9.5 2q0 6 8 16l21 23q203 248 360 248 q94 0 94 -107q0 -133 -123 -301q-141 -188 -317 -266q-102 -43 -206.5 -43t-104.5 104z" />
<glyph unicode="7" horiz-adv-x="778" d="M156 799q0 63 96 150t213 87q59 0 180 -75.5t184 -77.5q203 213 275 213q37 0 37 -25q0 -45 -93.5 -117.5t-195.5 -89.5q-154 -174 -344 -444l321 -19q31 0 33 -12q0 -18 -35 -18l-350 6q-213 -309 -213 -352q18 12 21.5 12t9.5 -6q0 -14 -46 -50t-63 -36q-25 0 -24 30 q0 57 254 402h-232q-23 0 -22 14q0 18 18.5 28.5t38.5 10.5l232 -8q186 252 360 440h-2q-109 0 -211 68.5t-182 68.5t-151.5 -71.5t-71.5 -114.5q0 -14 12 -14q33 0 80 50t62 83t24 33q14 0 14 -11q0 -41 -71.5 -114.5t-114.5 -73.5t-43 33zM870 887q76 16 157 80.5t81 93.5 q0 6 -8 6q-63 0 -230 -180z" />
<glyph unicode="8" d="M-16 49q0 156 151 311q129 133 314 265q-41 123 -41 204q0 115 122.5 202t239.5 87t117 -92q0 -96 -117 -197q-90 -76 -256 -190q68 -207 68 -270q0 -184 -146.5 -317.5t-310.5 -133.5q-141 0 -141 131zM37 49q0 -110 96 -110q164 0 264.5 132t100.5 260t-41 267 q-197 -139 -308.5 -267t-111.5 -282zM475 852q0 -86 31 -184q266 188 307 254q23 37 23 69q0 100 -95 101q-86 0 -176 -77t-90 -163z" />
<glyph unicode="9" horiz-adv-x="653" d="M133 551q0 55 47 141t123 170t192.5 144.5t239.5 60.5q49 0 49 -41q0 -66 -106.5 -167t-200.5 -109q-29 0 -28 26q0 16 13 35.5t27 22.5q12 0 13 -15q0 -2 -8 -12q70 8 170 89t100 124q0 18 -31 18q-88 0 -191.5 -62.5t-182 -146.5t-133 -167.5t-54.5 -125.5t43 -42 q76 0 209 84t228.5 167.5t109.5 108.5q14 16 41 23q27 0 26 -21q0 -8 -12 -33q-197 -324 -600 -878q-23 -27 -35 -27l-2 -2q-10 0 -10 6q0 8 12.5 26.5t33 44t214 325.5t283.5 446q-111 -98 -261.5 -198.5t-246.5 -100.5q-72 0 -72 86z" />
<glyph unicode=":" horiz-adv-x="315" d="M66 18.5q0 30.5 29.5 58t51 27.5t31.5 -12t10 -27.5t-27.5 -46t-61 -30.5t-33.5 30.5zM242 420q0 31 29.5 58.5t51 27.5t32 -12.5t10.5 -27.5t-28 -46t-61.5 -31t-33.5 31z" />
<glyph unicode=";" horiz-adv-x="303" d="M-31 -139q0 -8 13 -8h2q14 2 27.5 5t47 19.5t59 36.5t47 57t21.5 70q0 66 -36 65q-31 0 -55.5 -24.5t-24.5 -57t55 -40.5q0 -39 -58.5 -74t-82.5 -39q-14 -6 -15 -10zM262 420q0 31 30 58.5t51.5 27.5t31.5 -12.5t10 -27.5t-27.5 -46t-61.5 -31t-34 31z" />
<glyph unicode="&#x3c;" horiz-adv-x="741" d="M221 553q0 29 66 45l415 61q14 0 14.5 -8t-11.5 -12l-396 -59q-33 -6 -32.5 -14.5t12.5 -20.5l354 -170q10 -4 10 -20.5t-30 -16.5l-314 149q-86 41 -86 58q-2 4 -2 8z" />
<glyph unicode="=" horiz-adv-x="856" d="M141 389q0 18 15.5 28.5t31.5 10.5l433 -16q63 0 63 -18.5t-74 -22.5q-90 4 -256 4h-194q-18 0 -19 14zM219 528q0 18 15.5 28.5t31.5 10.5l432 -16q63 0 63.5 -18.5t-73.5 -22.5q-90 4 -256 4h-194q-18 0 -19 14z" />
<glyph unicode="&#x3e;" horiz-adv-x="741" d="M209 348q0 8 12 12l395 60q33 6 33 14.5t-12 20.5l-354 170q-10 4 -10.5 20.5t30.5 16.5l313 -150q86 -41 86 -57q2 -4 3 -9q0 -29 -66 -45l-416 -61q-14 0 -14 8z" />
<glyph unicode="?" horiz-adv-x="770" d="M147 18.5q0 30.5 30 58t51.5 27.5t31.5 -12t10 -27.5t-27.5 -46t-61.5 -30.5t-34 30.5zM272 334q10 100 93.5 181t195 139.5t221 121t185 155.5t75.5 212q0 176 -156.5 176t-330.5 -146.5t-174 -302.5q0 -80 53 -79q70 0 194 112.5t148 169.5q6 14 18.5 14t12.5 -14 q0 -2 -4 -14q-45 -78 -171 -185.5t-203 -107.5t-77 117q0 197 176.5 333t366.5 136q115 0 186.5 -59.5t71.5 -165t-59.5 -182.5t-148.5 -126t-193.5 -103t-195.5 -102.5t-154.5 -123t-69.5 -162.5q-1 -83 28 -95q10 -6 10.5 -11t-23 -5t-49.5 31t-26 86z" />
<glyph unicode="@" horiz-adv-x="1136" d="M-16 28.5q0 118.5 62.5 237.5t178 225.5t309 174t429.5 67.5q123 0 184 -50t61 -133t-55 -179.5t-147.5 -179t-224.5 -138t-271 -55.5q-12 0 -12 14q0 31 32 123l11 29q0 4 -7.5 4t-119.5 -82q-111 -82 -144.5 -82t-33.5 62q0 170 193.5 331.5t465.5 161.5q25 0 25 -20.5 t-192.5 -238.5t-192.5 -263q0 -8 8 -8q115 0 261 94t248.5 224t102.5 226q0 135 -206 135.5t-380 -71.5t-283.5 -180.5t-172 -229.5t-62.5 -224t57.5 -163.5t176 -60.5t273.5 39t245 78l92 38q12 6 23.5 6.5t11.5 -9t-8 -13.5q-41 -18 -107.5 -46t-240 -74t-307.5 -46 t-208.5 79t-74.5 197.5zM285 61q0 -12 12 -12t40 15.5t67.5 43t66.5 48.5q101 74 113 86q35 27 135 141.5t100 132.5q0 8 -16 8q-94 0 -219 -87t-212 -197.5t-87 -178.5z" />
<glyph unicode="A" horiz-adv-x="1015" d="M-35 72q0 117 69.5 295t201 373.5t296 366.5t379.5 282.5t428 111.5q82 0 82 -61q0 -80 -123.5 -230.5t-273.5 -269.5t-217 -119q-27 0 -27 28t46 83t63 55q8 0 8 -9t-25.5 -37t-25.5 -36t12 -8q43 0 169 108.5t237.5 242.5t111.5 196q0 39 -51 39q-133 0 -289.5 -85 t-298 -218t-273.5 -298t-228.5 -324t-154.5 -297t-58 -218t63 -80q111 0 438 283q424 367 727 751q51 63 80 63.5t29 -21t-199 -267.5q-594 -735 -594 -827q0 -16 16.5 -16.5t44 13t80 47.5t91.5 60q94 61 258 176l137 86q14 8 30.5 8t16.5 -4t-6 -8l-148 -90 q-25 -18 -80 -56t-87.5 -60.5t-83 -56.5t-85 -54.5t-71.5 -40.5q-76 -41 -113 -41q-35 0 -35 39q0 59 81 192t162 245t81 118t-4 6q-25 -23 -64.5 -61.5t-152.5 -138t-208 -175.5t-200.5 -138.5t-160.5 -62.5q-100 0 -101 140z" />
<glyph unicode="B" horiz-adv-x="1159" d="M-96 -35q0 129 108.5 329t290.5 407.5t395 392t445.5 301t417.5 116.5q141 0 141 -71q0 -106 -271.5 -321.5t-476.5 -311.5q0 -4 9 -4q90 12 151 12q197 0 197 -133q0 -123 -151.5 -305t-370 -321.5t-383.5 -139.5q-121 0 -121 104q0 72 51 169.5t104 146.5q12 8 16.5 8 t4.5 -2q-45 -61 -84 -152.5t-39 -160.5q0 -90 80 -90q109 0 307.5 143t356 328.5t157.5 291.5q0 92 -133 93q-139 0 -217 -33l-29 -10q-137 -55 -147.5 -55.5t-10.5 5t17 15.5q190 78 397 231.5t336 295.5t129 208q0 35 -45 35q-209 0 -496.5 -185.5t-526.5 -433 t-409 -499.5t-170 -383q0 -23 13 -23q39 0 218 210t359.5 466t212.5 362q5 15 19 15q6 0 10 -23q0 -96 -168 -354t-373 -481.5t-297 -223.5q-25 0 -24 31z" />
<glyph unicode="C" horiz-adv-x="600" d="M-37 109q0 129 78 309t218 366.5t315.5 348t393.5 265t425 103.5q112 0 112 -84q0 -103 -137 -281t-318.5 -317t-289.5 -139q-49 0 -49 29q0 20 44 66t70 46q8 0 8.5 -7t-25.5 -30.5t-26 -31t4 -7.5q61 0 229.5 127t316 290t147.5 247q0 68 -103 68q-176 0 -373.5 -105.5 t-363.5 -270.5t-302 -351.5t-214 -362.5t-78 -296t92 -120q125 0 502 254l137 86q14 8 30.5 8t16.5 -4t-6 -8l-147 -90q-25 -16 -115 -76.5t-133 -87t-113 -65.5q-131 -76 -215 -76q-131 0 -131 197z" />
<glyph unicode="D" horiz-adv-x="1445" d="M-2 -163q0 140 67.5 360.5t118.5 220.5q15 -1 15 -19l-13 -86q0 -84 41 -159.5t113 -118.5l152 188q-121 51 -121 209t92 341t248.5 351t398.5 283t506 115q160 0 237.5 -72t77.5 -202t-78.5 -301t-222 -342t-319.5 -315.5t-395.5 -234.5t-426.5 -90q-72 0 -133 23 q-152 -168 -231 -250q-41 -41 -72 -41q-55 0 -55 140zM53 -124q0 -126 43 -126q6 0 219 254q-74 37 -123 98t-61 129l-8 25q-6 0 -23 -66q-47 -188 -47 -314zM379 14q65 -24 124 -24h5q201 0 450.5 142t450.5 341t339 422t138 377q0 225 -291 225q-178 0 -359 -79 t-320.5 -203.5t-251 -271t-171 -288t-59.5 -254t80 -151.5q641 801 758 971q29 41 47 41t18 -52q0 -90 -766 -977h27q80 0 176 41t176 99q158 111 258 215l41 41q18 20 30.5 20t12.5 -8q0 -12 -16 -29l-43 -43q-29 -29 -112 -98.5t-161.5 -122.5t-182 -97t-185.5 -44 q-29 0 -41 2q-84 -88 -172 -195z" />
<glyph unicode="E" d="M-12 49.5q0 143.5 152.5 346t379.5 315.5q-74 -18 -125 -19q-145 0 -145 113q0 90 95 221t242.5 255t351.5 211t396 87q90 0 90 -51q0 -88 -205.5 -248t-310.5 -160q-29 0 -28.5 32t43.5 67.5t54 35.5t11 -9t-19.5 -21.5t-19.5 -21.5t8 -9q57 0 244 145.5t187 200.5 q0 20 -31 21q-170 0 -363.5 -95.5t-339 -223.5t-242 -259t-96.5 -205q0 -63 74 -63q168 0 375 137q31 18 62.5 39.5t38.5 27t13.5 5.5t6.5 -17v-6q0 -18 -158 -110l-53 -33q-213 -127 -423 -374t-210 -372q0 -71 82 -71h2q131 0 555 284l137 86q14 8 30.5 8t16.5 -4t-6 -8 l-147 -90q-18 -12 -114.5 -76.5t-137.5 -90t-117 -66.5q-180 -78 -215 -78h-4q-137 0 -137 143.5z" />
<glyph unicode="F" horiz-adv-x="808" d="M2 -143q0 45 126 231t325 434l-422 -2q-27 0 -27 15q0 25 26.5 39t59.5 14q176 0 406 -13q307 379 602 678q-119 2 -214.5 38t-146.5 77q-139 111 -271 111t-251 -123t-119 -201q0 -25 21 -25q57 0 140 88.5t116 165.5q8 18 14 19q12 0 12 -10q0 -57 -113.5 -177 t-193.5 -120q-57 0 -57 51q0 100 157.5 236.5t350.5 136.5q66 0 164 -54.5t211.5 -116t205.5 -71.5q344 340 467 340q49 0 49 -37q0 -72 -142 -183.5t-308 -137.5q-254 -270 -588 -689q223 -10 490 -30q39 0 43 -15q-1 -16 -48 -16l-512 12h-12q-420 -532 -420 -600 q0 -6 5.5 -6t12.5 4t16 9t15.5 9.5t8.5 4.5t2 -6q0 -23 -71 -74t-97 -51q-33 0 -33 45zM1210 1282q139 25 266.5 129.5t127.5 159.5q0 18 -21 18q-80 0 -373 -307z" />
<glyph unicode="G" horiz-adv-x="829" d="M-12 -111q0 188 55 381q20 72 35 72l20 -20q-10 -47 -10 -82q0 -106 63.5 -170t157.5 -70q426 526 840 1063q-47 -33 -82 -57.5t-166 -108.5t-234.5 -138t-231.5 -102.5t-214 -48.5q-121 0 -121 123q0 76 47.5 176.5t142.5 206t219 194.5t297 146t357 57q92 0 92 -59 q0 -63 -91 -160.5t-224 -173.5t-238 -76q-37 2 -36.5 31t26 57.5t41 28.5t15.5 -6t-10.5 -15.5t-10.5 -16.5t12 -7q76 0 195 63.5t207 144.5t88 126q0 39 -68 39q-152 0 -338 -93.5t-332.5 -220t-247 -259t-100.5 -207.5q0 -72 93 -72q135 0 369.5 119.5t408.5 242.5 t203 164q14 18 50 18.5t36 -20t-23 -53.5q-377 -500 -913 -1106q207 25 505 225l138 86q14 8 30.5 8t16.5 -4t-6 -8l-148 -90q-139 -92 -298 -163.5t-267 -84.5l-215 -241q-31 -33 -53 -33q-82 0 -82 194zM33 -55q0 -191 63 -191q8 0 31 22.5t158 190.5q-84 6 -147.5 56.5 t-86.5 119.5q-2 6 -5 6.5t-8 -56t-5 -148.5z" />
<glyph unicode="H" horiz-adv-x="950" d="M0 -29q0 109 298 510.5t503 622.5l4 8q0 4 -6 4q-80 -53 -334 -164.5t-365 -111.5q-61 0 -61 41q0 12 17.5 33.5t24.5 21.5t21.5 -13.5t89 -13.5t253 66.5t370.5 177.5q66 39 109 78t99 98.5t73.5 76.5t65.5 69.5t77 80.5q80 76 131 76q16 0 16 -14q0 -82 -264 -275 q-100 -76 -116 -94q-231 -254 -557 -685t-328 -535q0 -6 4 -6l29 16q6 0 6 -6q0 -16 -51.5 -53t-80 -37t-28.5 28zM453 -193q0 129 266 498q-53 129 -53 365q0 80 24.5 133t67.5 53q98 0 98 -205q0 -86 -18 -184q285 371 649 772t487 492q29 18 70 18t41 -14q0 -10 -8 -19 q-10 -10 -33 -30.5t-39 -36.5q-717 -717 -1159 -1243l-25 -31q-2 -6 -10 -44t-14 -57q42 -73 108 -73h2q39 0 76 20q61 35 145 90q14 8 31 8t16.5 -4t-6.5 -8l-147 -90q-78 -49 -138.5 -49t-107.5 43q-57 -182 -138 -305t-159 -123q-27 0 -26 24zM481 -174q1 -15 11 -19 q59 0 125.5 132.5t115.5 322.5q-252 -348 -252 -436zM717 707q0 -209 41 -345q47 211 47 343.5t-47 132.5q-41 0 -41 -131z" />
<glyph unicode="I" horiz-adv-x="759" d="M-119 -274q0 8 21 24q401 332 878 860q227 252 380 489.5t153 373.5q0 59 -68 59q-139 0 -315 -107.5t-315.5 -252t-236.5 -292t-97 -222t69 -74.5q100 0 267 101t325 267q10 10 18.5 11t8.5 -8t-66.5 -69.5t-160 -135t-205 -129t-197.5 -54.5q-104 0 -104 105 q0 96 89 244.5t226 291t329.5 244.5t372.5 102q100 0 101 -127q-23 -164 -123.5 -349t-236.5 -352t-328.5 -353.5t-366.5 -331.5t-385 -307q-20 -14 -29 -15l-4 2v5z" />
<glyph unicode="J" horiz-adv-x="847" d="M-616 -958q0 137 113.5 309t301.5 342q344 315 783 598q334 420 550 740.5t216 420.5q0 31 -9.5 37t-44.5 6q-154 0 -374 -117.5t-406 -274.5t-319.5 -321t-133.5 -252q0 -76 97 -76h2q98 1 255.5 82.5t268.5 163.5l113 82l18 -4q-135 -119 -319 -225q-78 -45 -177.5 -83 t-173.5 -38q-121 0 -121 102t118 270q116 167 292 327.5t411.5 277.5t442.5 117q51 0 67.5 -20.5t16.5 -71.5q0 -264 -592 -1020q143 88 156.5 88t13.5 -6.5t-8 -12.5q-55 -25 -192 -108q-397 -500 -821.5 -930t-524.5 -430q-20 0 -20 27zM-553 -932q0 -8 6 -8 q59 0 386 357.5t702 824.5q-311 -207 -578 -441q-317 -274 -444 -501q-72 -130 -72 -232z" />
<glyph unicode="K" horiz-adv-x="1441" d="M2 862q0 27 32 49.5t49 22.5t17 -14l-8 -17q0 -16 59.5 -16t132 10t222 64.5t258.5 113.5q147 80 190 117q332 342 406 395q35 27 58.5 27t23.5 -17q0 -43 -151.5 -179t-235.5 -183q-27 -33 -150 -180.5t-236.5 -286.5t-238.5 -297q-276 -352 -276 -440q0 -4 6 -4 q25 8 33 8t8 -6q0 -18 -59.5 -53t-88.5 -35q-18 0 -18 34q0 92 127 278.5t278.5 356.5t289.5 320.5t149 171.5q0 2 -5 2q-297 -178 -591 -260q-115 -33 -198 -33t-83 51zM723 355q0 -169 62.5 -280.5t195.5 -111.5q68 0 167 42t171 86t169 106.5t139 88t42 29.5t-16.5 4 t-30.5 -8l-137 -86q-355 -239 -501 -239h-1q-170 0 -170 346q0 215 57 467q29 -74 131.5 -74t289 102.5t352 233.5t288.5 257t123 171q0 31 -65 31q-29 0 -142 -136l-51 -61q-184 -199 -427 -376t-378 -177q-86 0 -108 82q37 139 57 162l4 8q0 4 -4 4q-29 0 -79 -89 t-94 -251t-44 -331z" />
<glyph unicode="L" horiz-adv-x="1277" d="M-53 -301q0 125 62.5 288t125 252t78.5 89q6 -1 6 -11l-2 -22q35 -156 162 -242q57 78 180 249t203 280.5t196.5 266.5t201.5 258t175 200q177 194 268 194h1q38 0 38 -60q0 -107 -89 -325.5t-206.5 -397.5t-185.5 -179q-41 0 -41 83t63.5 231t102.5 148q14 0 14 -18 q0 -6 -2 -10q-49 -61 -88 -169t-39 -164t25 -56q47 0 147.5 178t181.5 385t81 287q0 35 -19 34q-41 0 -220 -221t-485.5 -626.5t-457.5 -593.5q121 -63 256 -63q3 0 5 -1q133 1 279 25q150 24 228 49l80 26h6q12 0 12 -8q0 -14 -14 -18q-389 -123 -647 -123q-141 0 -250 57 q-324 -397 -397 -397q-35 0 -35 125zM12 -264q0 -86 15 -92q51 0 309 352q-125 82 -170 229q-82 -115 -118 -259t-36 -230z" />
<glyph unicode="M" horiz-adv-x="1452" d="M0 35q0 27 176 237.5t387 457.5t387 502t176 359q0 66 -67 66q-111 0 -234 -58.5t-230.5 -151.5t-207.5 -208t-170 -227q-158 -246 -158 -359q0 -59 50 -59q68 0 219 114.5t268 229.5l117 113q4 4 13 4t9 -6l-4 -9q-18 -18 -50 -51t-120 -113.5t-165 -143t-165 -114 t-139 -51.5q-74 0 -74 89t52.5 217t152 267.5t223 262.5t285.5 203t322 80q41 0 79.5 -30t38.5 -90.5t-44 -158.5t-132 -229t-162.5 -236.5t-198.5 -257.5t-173 -210t-146 -173q2 -2 19 10q872 791 985 891.5t122 110.5t13 14q16 16 42 16t26 -24q0 -61 -179.5 -311 t-357.5 -477.5t-178 -235.5l2 -2q125 109 513 470t678 623.5t322 262.5q23 0 23 -29q0 -55 -93 -196.5t-333 -444.5q-10 -12 -332 -397q-708 -845 -708 -977q0 -8 13 -8t102 46t124 76.5t41 30.5t6 -9t-4 -13q-23 -29 -138.5 -94.5t-146 -65.5t-30.5 26q0 129 219 455 q344 514 833 1055q61 70 227.5 274.5t166.5 220.5q0 4 -2 5q-12 0 -757 -684t-964 -893q-25 -25 -47 -25q-59 0 -59 14.5t28.5 50t307.5 375.5q655 801 655 840l-2 2q-18 -8 -537 -479q-758 -684 -860 -795q-47 0 -55 25z" />
<glyph unicode="N" horiz-adv-x="1036" d="M0 614q0 199 173 434.5t426 397.5t466 162q51 0 70.5 -22.5t19.5 -74.5q0 -119 -156 -376q-258 -424 -651 -877q-6 -6 -6 -13t4 -7t16 12q504 461 563.5 520t519.5 474t480.5 415t20.5 -23q0 -74 -233.5 -380t-515.5 -637.5t-515 -642t-233 -390.5q0 -8 9 -8t44 22.5 t39 22.5q16 0 16 -10q0 -4 -8 -10q-84 -55 -111 -56q-23 0 -22 27q0 109 152.5 352.5t369.5 517t435 532.5t370.5 441t152.5 201q0 2 -4 2t-131 -114.5t-313 -285.5t-368.5 -338t-328 -300t-403.5 -376t-260 -245q-20 -20 -48 -20t-28 9t45 68.5t257 321.5t376 470 t303.5 423t139.5 295q0 33 -15.5 46t-52.5 13q-127 0 -277.5 -80t-281.5 -199.5t-241.5 -253.5t-175 -255t-64.5 -189.5t62.5 -68.5t143 41t152.5 98q150 119 233 213l37 41q10 12 17.5 12t7.5 -9t-12.5 -22.5t-36 -40t-95 -94t-139 -120t-154.5 -95.5t-157 -43 q-84 0 -84 92z" />
<glyph unicode="O" horiz-adv-x="903" d="M-35 133q0 127 65.5 303t192.5 363.5t291 347.5t386 263t452 103q65 0 65 -57q0 -115 -170 -291t-321 -178q-37 8 -37 23.5t25.5 46t37 30.5t11.5 -7t-8.5 -15t-8.5 -16q0 -4 8 -5q55 0 161 82t190 182.5t84 149.5q0 31 -37 31q-217 0 -428 -110.5t-366 -278.5 t-275.5 -361.5t-182 -365.5t-61.5 -289t76 -117q121 0 318.5 116t397 293t369.5 414.5t227 454.5q25 98 31 98q15 0 15 -16q-25 -190 -155 -429t-315.5 -449.5t-429 -356t-469.5 -145.5q-139 0 -139 186z" />
<glyph unicode="P" horiz-adv-x="739" d="M0 0q0 160 192.5 431t460 522t571.5 435.5t505 184.5q172 0 172 -123q0 -96 -106.5 -246.5t-256 -288t-326 -235.5t-303.5 -98q-69 0 -69 80q0 72 41 169l14 33q8 20 17.5 20.5t8.5 -15t-8 -46.5q-18 -72 -18 -118q0 -86 66 -87q106 0 318 163t383 369t171 314 q0 84 -113 84q-160 0 -387 -118.5t-450.5 -304t-419 -393.5t-317 -407.5t-121.5 -324.5q0 -16 14 -16q59 0 260 238.5t386 505.5t220 357q6 14 13 15q23 0 23 -54q0 -58 -11 -73q-23 -61 -90 -166q-158 -248 -448 -549t-359 -301q-33 0 -33 43z" />
<glyph unicode="Q" horiz-adv-x="960" d="M-461 -350q0 59 117 157.5t289 177t305 78.5h18q406 295 719 617q164 168 260 328.5t96 285.5q0 53 -20 74t-74 21q-158 0 -388 -149.5t-403 -359.5t-173 -362q0 -57 59 -57q106 0 258 99t250 198l100 98q8 8 19.5 8t11.5 -7t-10 -18.5t-36 -39t-103.5 -97t-152.5 -123 t-174 -97.5t-183 -44q-68 0 -68 92q0 201 158.5 409t392 339t442.5 131q74 0 115 -39t41 -150.5t-91 -262t-245 -308.5q-307 -313 -709 -598q78 -16 270.5 -103t295 -87t213 42t172.5 85l63 41q10 8 21.5 8t11.5 -7t-9 -15.5t-26.5 -20.5t-75 -45t-116.5 -60 q-151 -66 -301 -66q-1 0 -3 1q-151 0 -331 81t-258 95q-244 -170 -443.5 -278.5t-269.5 -108.5q-35 0 -35 37zM-412 -348q0 -8 9 -8q33 0 208 105.5t392 260.5q-12 2 -39 2q-141 0 -355.5 -128t-214.5 -232z" />
<glyph unicode="R" horiz-adv-x="1339" d="M-70 -61q0 160 192.5 431t460 522t571.5 435t505 184q172 0 172 -122q0 -96 -106.5 -247t-256 -288t-325.5 -235.5t-303 -98.5q-10 0 -17 2q20 -606 199 -606q61 0 156.5 38t160.5 77l66 39q16 10 24.5 10t8.5 -7t-15 -20q-29 -18 -73.5 -47t-157.5 -77t-185.5 -48 t-121.5 46t-74 126q-47 143 -47 339t23.5 308.5t41.5 112.5q5 0 5 -10l-9 -219q20 -27 66 -27q106 0 318 163t383 368.5t171 314.5q0 84 -112 84q-160 0 -387.5 -119t-450.5 -304t-418.5 -393t-317.5 -408t-122 -324q0 -16 14 -17q59 0 260 238.5t386.5 506t220.5 357.5 q6 14 12 14q23 0 23 -54q0 -58 -11 -73q-23 -61 -90 -166q-158 -248 -447.5 -548.5t-359.5 -300.5q-33 0 -33 43z" />
<glyph unicode="S" horiz-adv-x="1153" d="M-432 -160q0 8 14 15q303 156 600 399q305 252 493.5 443.5t287 296t234.5 250t208 220.5q12 12 20.5 12.5t8.5 -12.5q0 -63 -39 -237t-115 -404.5t-170 -443.5t-223 -359.5t-258 -146.5q-80 0 -126 83t-46 217t65 247q16 29 29 29q10 0 14 -17q-20 -35 -36.5 -120 t-16.5 -171q0 -241 131 -241q78 0 172 125t174 308t148.5 377.5t107.5 347t39 181.5t-4 29q-18 0 -233.5 -226.5t-342 -353.5t-296.5 -282q-352 -319 -803 -568q-12 -6 -24.5 -6t-12.5 8z" />
<glyph unicode="T" horiz-adv-x="638" d="M4 -221q0 96 369.5 571t726.5 834q-119 2 -214 37.5t-147 76.5q-139 111 -271 111t-251 -123t-119 -201q0 -25 21 -24q57 0 140 88t116 166q10 18 14 18q12 0 12 -12q0 -55 -113.5 -175t-193.5 -120q-57 0 -57 51q0 100 157.5 236.5t350.5 136.5q66 0 164 -54.5 t211.5 -115.5t205.5 -72q344 340 467 340q49 0 49 -37q0 -72 -142 -183t-308 -138q-315 -336 -681 -806t-366 -531q0 -6 5.5 -6.5t12.5 4t16 9.5t15.5 9t8.5 4t2 -6q0 -23 -71 -74t-97 -51q-33 0 -33 37zM1212 1212q139 25 266.5 129.5t127.5 159.5q0 18 -21 19 q-80 0 -373 -308z" />
<glyph unicode="U" horiz-adv-x="1419" d="M-4 561q0 82 60.5 207t166 259t232.5 253t279.5 194.5t284.5 75.5t132 -108q0 -145 -100.5 -336t-242.5 -368t-284.5 -339.5t-243 -290.5t-100.5 -180q0 -10 10 -10q86 0 395.5 253t573.5 505l266 252q170 170 291 312t131 153q27 39 49.5 39t43 -7.5t20.5 -15.5 q0 -20 -312.5 -406.5t-320.5 -397.5t-77.5 -95t-131 -163t-129.5 -171q-149 -204 -149 -269q0 -22 18 -22q96 0 602 340l137 86q14 8 31 8t17 -4t-7 -8l-147 -90q-31 -20 -123 -82.5t-149.5 -99.5t-135.5 -84q-154 -90 -239 -90q-33 4 -33 59t65.5 180t156.5 256t183.5 254 t151.5 202t55 79q-10 0 -178 -156.5t-370.5 -343t-409.5 -343.5t-285 -157q-31 0 -30 33q0 152 344 570q143 174 286.5 350t243.5 343t100 269q0 29 -16 45.5t-35.5 20.5t-56.5 6q-113 -2 -252 -87t-262 -213t-226.5 -267.5t-165 -260t-61.5 -175t39 -54.5q78 0 218 96.5 t243 192.5l100 96q12 12 20.5 12t8.5 -5t-12 -17l-39 -39q-27 -27 -105 -94.5t-146.5 -118.5t-148.5 -94t-131 -43q-100 0 -100 104z" />
<glyph unicode="V" horiz-adv-x="833" d="M0 508q0 113 89 284t226.5 334.5t331 281.5t375.5 118q125 0 125 -154q0 -102 -106.5 -309t-235.5 -396.5t-235.5 -344t-106.5 -162.5q49 57 234.5 243.5t329.5 321.5t338 300t359.5 283.5t333.5 199.5t283 81q39 0 39 -16q0 -20 -114 -93t-122 -73t-8 6t15.5 22.5 t15.5 20.5t-6 4q-125 0 -469 -241.5t-746.5 -610t-675.5 -698.5q-43 -53 -137 -53q-16 0 -16 6t24.5 28.5t137 170t146.5 201.5t159 236.5t214 319.5t184 321.5t116 299.5q-4 69 -78 69h-2q-111 0 -284 -112.5t-328.5 -268t-268 -333t-112.5 -291.5q0 -59 51 -60 q121 0 279.5 116t301.5 284q10 12 18.5 12t8.5 -8.5t-10 -20.5q-88 -125 -283.5 -264t-324.5 -139q-35 0 -50.5 19.5t-15.5 64.5z" />
<glyph unicode="W" horiz-adv-x="1323" d="M0 545q0 82 58.5 207t166 259t239.5 251.5t299 194.5t327 77q141 0 141 -139q0 -98 -67.5 -252t-164.5 -303q-190 -297 -354 -500l-67 -82l921 897q55 51 62 51q14 0 14 -17.5t-39 -58.5q-336 -532 -578 -968l-6 -23q154 182 463 483.5t522 489.5t418 323.5t309 135.5 q31 0 31 -33q0 -8 -13 -16.5t-83 -59.5q-200 -141 -205 -141q-6 0 -6 4l4 12q0 8 -10 9q-80 0 -312.5 -182.5t-489.5 -430.5t-493.5 -497.5t-336.5 -385.5q-18 -23 -33 -22.5t-14.5 9.5t14.5 36l610 1063q0 6 -6 6q-588 -541 -801 -790q-29 -33 -142.5 -145.5t-137 -131 t-82.5 -29.5q-13 0 -13 15t163 209q163 196 357.5 434.5t357.5 509t163 418.5q0 86 -88 86q-150 0 -341.5 -121t-344 -283t-259 -329t-106.5 -259q0 -57 67.5 -57t156.5 45t169 111q162 133 265 241l40 45q8 6 14.5 6.5t6.5 -12.5q-256 -289 -500 -413q-98 -49 -174 -50 q-92 0 -92 103z" />
<glyph unicode="X" horiz-adv-x="1660" d="M127 996.5q139 236.5 340 411.5t358 175q276 0 277 -555q0 -127 -12 -385q334 324 757 799q20 23 50 23t30 -29q0 -12 -24.5 -40t-73.5 -82t-119 -123t-113 -112t-135 -130t-120.5 -113.5t-136 -126t-118.5 -109.5q-16 -242 -16 -420q0 -207 135 -207q158 0 494 252 l137 86q14 8 30.5 8t16.5 -4t-6 -8l-147 -90q-141 -100 -221 -153.5t-177.5 -100.5t-161.5 -47q-184 0 -184 383q0 66 4 213q-268 -250 -499 -446q-303 -254 -345 -254q-6 0 -6 4q0 23 29 39q2 2 33 22q90 63 172 131q315 256 618 543q4 68 13 199q16 262 16 409 q0 383 -182 383q-100 0 -243.5 -119.5t-264.5 -279.5t-207 -327t-86 -257q0 -70 65 -70q119 0 336 188.5t334 385.5q12 20 20.5 20t8.5 -14t-6 -27q-84 -121 -269 -313q-102 -109 -220 -184.5t-208 -75.5q-112 0 -112 119q0 172 139 408.5z" />
<glyph unicode="Y" horiz-adv-x="1259" d="M-309 -981q0 104 94 242.5t256 283.5q295 266 715 547q385 485 663 873q-539 -365 -710 -365q-53 0 -54 53q0 94 131 310l45 71q0 4 -6 4l-55 -34q-37 -20 -143.5 -73.5t-208 -93.5t-234.5 -74t-239 -34q-37 0 -37 23q0 35 60 62q58 26 79 26h1q20 -1 20 -11l-13 -18 q0 -8 15 -8q109 0 233.5 32.5t224.5 77.5q209 96 316 172l45 33l24 25q25 27 60 63.5t80 82.5t86 87q70 74 137 132.5t102 58.5q12 0 23.5 -8.5t11.5 -23.5t-79 -96t-188.5 -186.5t-177 -181.5t-169 -217t-101.5 -209q0 -14 21 -14q205 0 772 434q172 229 237.5 301 t117.5 117t80 59t42 14t24.5 -10t10.5 -18t-14 -29q-47 -74 -158 -164q-16 -16 -206.5 -256.5t-229.5 -290.5q-164 -223 -439 -565q465 295 498 295q10 0 10 -10t-16 -21q-199 -100 -537 -321q-250 -307 -466 -552t-427 -438.5t-297 -193.5q-10 0 -20 13.5t-10 23.5z M-229 -948q0 -6 4 -6q143 2 925 977q-397 -276 -663 -536.5t-266 -434.5z" />
<glyph unicode="Z" horiz-adv-x="1406" d="M0 -18.5q0 104.5 26.5 215t67.5 163.5q10 23 21.5 23t11.5 -37t56.5 -147.5t170.5 -184.5q330 326 770.5 777.5t440.5 470.5q0 2 -2 2q-150 -84 -235 -84t-146.5 30.5t-96.5 67.5q-121 90 -184 100q-90 0 -175 -53t-139.5 -127t-87 -145.5t-32.5 -107.5t20 -36 q45 0 163 101.5t165 210.5q8 20 18.5 20t10.5 -13.5t-2 -17.5q-35 -92 -174.5 -215t-231.5 -123q-35 0 -35 51.5t41 133.5t111 165t182.5 141t235.5 58q92 0 192 -98q37 -35 94.5 -65.5t116 -30.5t142.5 43q133 70 198 135q10 10 22.5 10t35 -11t22.5 -25.5t-12 -26.5 q-862 -879 -1391 -1358q113 -59 262 -60q330 0 795 291l137 86q14 8 30.5 8t16.5 -4t-6 -8l-147 -90q-516 -334 -875 -334q-152 0 -268 60q-217 -195 -242 -195q-47 0 -70.5 64.5t-23.5 169zM49 86q0 -295 66 -295q10 0 186 172q-137 80 -229 258q-23 0 -23 -135z" />
<glyph unicode="[" horiz-adv-x="1024" d="M164 -336q0 8 6 21l1260 1972q24 35 59 35h244q10 0 10 -11.5t-21.5 -35t-35.5 -23.5h-191q-18 0 -31 -16l-1206 -1891q-4 -6 -4 -12t12 -6h193q20 0 20 -12.5t-18.5 -28.5t-36.5 -16h-234q-27 0 -26 24z" />
<glyph unicode="\" horiz-adv-x="532" d="M276 -258q0 340 25 860t51.5 886.5t34.5 379.5q27 27 43 26.5t16 -36t-30 -412.5q-92 -1130 -92 -1600q0 -88 2 -125q-14 -23 -28.5 -22.5t-21.5 43.5z" />
<glyph unicode="]" horiz-adv-x="686" d="M-336 -349q0 11 21.5 34.5t35.5 23.5h191q18 0 31 17l1206 1890q4 6 4 12t-12 6h-193q-20 0 -20 12.5t18.5 29t36.5 16.5h234q27 0 26 -25q0 -8 -6 -20l-1260 -1973q-24 -34 -59 -34h-244q-10 0 -10 11z" />
<glyph unicode="_" horiz-adv-x="974" d="M51 -49q0 18 33 18h88l315 2h248q12 0 17 -10q0 -39 -56 -39h-53l-559 17q-31 4 -33 12z" />
<glyph unicode="`" horiz-adv-x="727" d="M285 748q0 23 24.5 22.5t34.5 -10.5q180 -143 193.5 -150.5t13.5 -11.5t-15.5 -4t-133 60.5t-117.5 93.5z" />
<glyph unicode="a" horiz-adv-x="604" d="M0 66q0 170 193.5 331.5t465.5 161.5q25 0 25 -20.5t-192.5 -238.5t-192.5 -263q0 -8 12.5 -8t104.5 53t174 106l84 56l2 -27q-330 -219 -402 -219q-12 0 -12 14q0 43 33 123l10 29q0 4 -7 4t-120 -82q-111 -82 -144.5 -82t-33.5 62zM49 61q0 -12 12.5 -12t40 15.5 t67.5 43t69 48.5q98 74 110 86q35 27 135.5 141.5t100.5 132.5q0 8 -17 8q-94 0 -219 -87t-212 -197.5t-87 -178.5z" />
<glyph unicode="b" horiz-adv-x="428" d="M-14 33q0 119 165.5 351t379.5 450.5t420 383t280 164.5q18 0 18 -22q0 -96 -387 -454.5t-651 -540.5q-188 -240 -188 -320q0 -14 14 -14q80 0 223 135q-6 16 -6 41q0 72 111.5 201t152.5 129q21 0 21 -31.5t-70 -129.5q-70 -100 -164 -196q8 -10 29 -10q53 0 168 76 l10 -21q-141 -94 -201 -94q-27 0 -41 14q-161 -151 -259 -151h-1q-25 0 -24 39zM252 416q186 137 565 491.5t379 431.5q0 5 -4 7q-53 0 -380 -320.5t-560 -609.5zM291 221q0 -16 2 -22q82 84 148.5 175t66.5 118q0 6 -6 6q-39 0 -125 -110t-86 -167z" />
<glyph unicode="c" horiz-adv-x="415" d="M0 82q0 86 84 199.5t211 197.5t231 84q41 0 41 -33q0 -45 -70.5 -118.5t-101 -73.5t-30.5 22q0 15 10 33.5t20.5 18.5t18.5 -15q114 89 114 132q0 7 -10 8q-66 0 -180.5 -92.5t-203.5 -212t-89 -189.5q0 -18 18 -18q76 0 299 139l123 80l2 -27q-51 -33 -116 -74 q-238 -147 -330 -147q-41 0 -41 86z" />
<glyph unicode="d" horiz-adv-x="690" d="M0 45q0 106 77 204.5t185.5 161t217 99.5t182.5 37q412 453 643 751q47 61 106 64q18 0 19 -17q0 -17 -272 -325q-272 -309 -545 -630.5t-273 -369.5q0 -8 10 -8t82 35t129 70l201 127l2 -27q-340 -229 -432 -229q-25 0 -25 27.5t13.5 56t39.5 71.5q35 55 46 84l-3 2 q-309 -225 -380 -225q-23 0 -23 41zM41 45q0 -10 8 -10q55 0 272.5 160.5t311.5 308.5q0 14 -25 14q-57 0 -194.5 -86t-255 -201.5t-117.5 -185.5z" />
<glyph unicode="e" horiz-adv-x="446" d="M0 68q0 96 69.5 192t163 157.5t180.5 100.5t132 39t45 -31q0 -76 -179.5 -184.5t-297.5 -142.5q-70 -101 -70 -156q0 -27 20 -27q25 0 111 34t141 67l201 127l2 -27q-215 -143 -320.5 -182t-140.5 -39q-57 0 -57 72zM133 225q102 33 242.5 147.5t140.5 153.5q0 6 -8 6 q-55 0 -172 -96t-203 -211z" />
<glyph unicode="f" horiz-adv-x="409" d="M-539 -631q0 76 387.5 590t819.5 1002.5t532 488.5q18 0 19 -16q0 -84 -115 -238t-281 -311q-358 -348 -571 -502l-131 -164q16 12 29 12q33 0 33 -46q0 -47 -44 -146q76 37 162 90l178 115l2 -27q-242 -160 -356 -205q-109 -229 -303.5 -449t-337.5 -220q-23 0 -23 26z M-496 -621q0 -6 9 -6q102 0 267 201t290 426q-21 8 -21 62q0 52 43 122q-588 -735 -588 -805zM78 68.5q0 -31.5 6 -41.5q70 126 70 159q0 8 -4 9q-29 0 -50.5 -47.5t-21.5 -79zM332 481q207 150 521 483t314 435q0 4 -6 4q-72 0 -829 -922z" />
<glyph unicode="g" horiz-adv-x="593" d="M-500 -723q0 150 226 346q82 72 208.5 165t155.5 116q47 57 98 119q111 129 119 141q0 4 -7 4t-120 -82q-111 -82 -144.5 -82t-33.5 62q0 170 193.5 331.5t466.5 161.5q23 0 22 -24q-375 -471 -395 -508q35 0 289 161l86 54l2 -25q-131 -90 -246 -151l-187 -97 q-162 -219 -404.5 -470t-285.5 -251t-43 29zM-446 -692q0 -13 6 -13q25 0 356 398l111 131q0 4 -4 4q-139 -100 -260 -205.5t-165 -177.5t-44 -137zM51 61q0 -12 12.5 -12t40 15.5t67.5 43t67 48.5q100 74 112 86q35 27 135.5 141.5t100.5 132.5q0 8 -17 8 q-145 0 -331.5 -171t-186.5 -292z" />
<glyph unicode="h" horiz-adv-x="659" d="M-149.5 4q-0.5 10 28.5 49q147 180 475 562t352.5 405.5t70.5 71t82 83t92.5 88t97.5 87.5q104 86 153 86q14 0 24.5 -9.5t10.5 -19.5q0 -96 -355.5 -449.5t-594.5 -511.5l-33 -38q-51 -47 -207 -256q-12 -20 -12 -22.5t3 -2.5t23.5 13.5t153.5 109.5q307 223 449 293 q12 4 16 4q23 0 22.5 -38t-59.5 -117t-131 -146q-193 -182 -193 -205q0 -12 9 -12q115 37 200 88l201 127l2 -27q-215 -143 -320.5 -182t-135 -39t-29.5 18q0 37 104.5 147.5t208 216t103.5 126.5q0 4 -7 4q-27 0 -254 -153.5t-340.5 -240.5t-126 -100.5t-63.5 -19.5 q-20 0 -20.5 10zM354 526q162 109 498 451t336 407q0 10 -10.5 10.5t-22.5 -5.5q-133 -74 -324 -302q-8 -8 -85 -101.5t-95 -113.5z" />
<glyph unicode="i" horiz-adv-x="303" d="M-53 38q0 -40 24 -40q33 0 133.5 54t184.5 110l84 55l-2 27q-330 -217 -367 -217q-10 0 -10 8q23 51 181.5 233.5t240.5 263.5q12 16 12 23.5t-16 9.5l-47 4q-16 0 -31 -16q-139 -141 -263 -308t-124 -207zM477 713.5q0 31.5 31 60.5t52.5 29t32.5 -12.5t11 -29 t-28.5 -48t-63.5 -31.5t-35 31.5z" />
<glyph unicode="j" horiz-adv-x="374" d="M-756 -803q0 258 654 701q37 45 81 101t72.5 92t51 62.5t110.5 147.5l-74 -43q-49 -28 -92 -57l-6 24q12 8 40 27.5t75 51.5t99 79t98 104.5t56.5 68.5t53.5 11t43 -20q0 -6 -4 -10.5t-15.5 -17.5t-37 -44t-58.5 -69l-299 -381q41 25 174 106l180 113l3 -27 q-80 -51 -168 -104l-238 -148q-393 -492 -614 -708q-109 -106 -144 -107q-18 0 -29.5 15.5t-11.5 31.5zM-719 -788q0 -25 19 -25q33 0 542 641q-561 -403 -561 -616zM522 713.5q0 31.5 31 60.5t52.5 29t32.5 -12.5t11 -29t-28.5 -48t-63.5 -31.5t-35 31.5z" />
<glyph unicode="k" horiz-adv-x="679" d="M-127 -8q0 12 10 24q102 123 357.5 458t415 508t303 298t194.5 125q23 0 23 -25q0 -111 -298 -419t-567 -500q-37 -51 -104.5 -147.5t-83.5 -118.5q125 106 323.5 227t321.5 135q35 0 35 -39q0 -53 -111.5 -120.5t-224.5 -106.5l-111 -41q0 -4 6 -6q48 -20 48 -53 t-56 -91q-56 -60 -55 -75q0 -10 16 -11q68 0 232 101l203 127l2 -25q-334 -225 -447 -225q-55 0 -55 55q0 18 54 88t54 80q-6 10 -76.5 10t-91 -5t-83 -67.5t-85 -87t-39 -43t-27.5 -30.5t-47 -12t-36 12zM233 256q0 -8 25 -8q98 12 213 75.5t181.5 122t66.5 74.5q0 4 -6 4 q-47 0 -167 -66.5t-216 -133.5zM362 530q168 109 460 413t292 419q0 4 -11 4t-56 -45q-51 -43 -280.5 -301t-404.5 -490z" />
<glyph unicode="l" horiz-adv-x="370" d="M-31 35q0 119 166 351t380 450.5t419.5 383t279.5 164.5q18 0 19 -22q0 -98 -439.5 -523t-697.5 -606q-90 -129 -90 -186q0 -18 8 -18q84 0 301 135l123 80l2 -27q-51 -33 -116 -74q-238 -147 -330 -147q-25 0 -25 39zM129 281q188 143 619.5 562t431.5 498q0 5 -4 7 q-61 0 -452.5 -393.5t-594.5 -673.5z" />
<glyph unicode="m" horiz-adv-x="1009" d="M-43 6q47 53 233 285l-143 -88l-6 22l86 60q92 61 127 92t50 42t34.5 33.5t23.5 26.5l25 33q20 25 23 29q33 -8 32 -49q-57 -86 -167.5 -213t-110.5 -132.5t3 -5.5t30.5 21.5t150.5 107.5q250 172 338 232q35 29 48.5 28.5t22.5 -9.5t9 -25.5t-33 -67.5t-69 -98 q-96 -123 -119 -146q-10 -16 -10 -19t2 -3q14 0 454 321q72 51 96 52q19 0 19 -41q0 -40 -62 -119q-62 -80 -135 -148q-196 -179 -196 -198q0 -2 8 -2q25 0 276 161l84 56l2 -27q-330 -219 -401 -219q-12 0 -12 12q0 76 95 179.5t189.5 186.5t94.5 109q0 4 -3.5 4t-13.5 -6 t-257 -180t-288 -203.5t-100 -89.5q-20 -16 -63 -16t-43 9t16 26q123 123 263 278.5t147 167.5q0 6 -7 6q-20 0 -251.5 -162.5t-268.5 -189.5q-96 -72 -101 -75t-22 -21q-37 -39 -67 -39q-31 8 -33 12z" />
<glyph unicode="n" horiz-adv-x="671" d="M-68 4q0 2 35 39l66 70q109 121 149 172l-137 -84l-6 24l67 43q154 102 193 144.5t47 52.5q53 68 60 76q25 -8 24 -49q-41 -59 -110.5 -142.5t-114.5 -137.5t-45 -62.5t3 -8.5t30.5 21.5t150.5 107.5q248 172 315.5 218.5t87 46.5t19.5 -40t-61.5 -120t-135.5 -148 q-196 -179 -196 -198q0 -2 8 -2q25 0 276 161l84 56l2 -27q-330 -219 -401 -219q-12 0 -12 12q0 76 95 179.5t189.5 186.5t94.5 109q0 4 -4 4q-59 -29 -275.5 -181t-253.5 -179q-96 -72 -101 -75t-22 -21q-37 -39 -67 -39q-49 4 -52 6q-2 2 -2 4z" />
<glyph unicode="o" horiz-adv-x="475" d="M-12 61q0 154 177 306.5t294 152.5q57 0 57 -51q0 -145 -156 -291q12 -4 25 -4q57 0 166 72l10 -21q-131 -88 -199 -88q-27 0 -38 10q-80 -66 -168 -106.5t-128 -40.5t-40 61zM37 45q0 -12 14 -12q78 0 252 164v10q0 63 62.5 156.5t113.5 119.5q-6 6 -16 6 q-76 0 -251 -174t-175 -270zM340 233q147 152 147 228v2q-41 -20 -90 -97t-57 -133z" />
<glyph unicode="p" d="M-619 -559q0 12 23 41l1141 1311q10 12 43 12t33 -17q0 -6 -11 -16l-465 -524q-10 -12 -10 -16.5t3 -4.5t40 32t234.5 160t253.5 128q23 0 22 -29q0 -55 -59.5 -138t-132.5 -151q-190 -178 -190.5 -189t7.5 -11q115 37 201 88l201 127l2 -27q-215 -143 -320.5 -182 t-135.5 -39t-30 18q0 37 103.5 147.5t208 216t104.5 126.5q0 4 -6 4q-45 0 -203.5 -101.5t-211 -143.5t-95.5 -80t-70.5 -64.5t-53 -50t-42 -40t-231.5 -265t-248 -291.5q-33 -45 -68 -45q-37 2 -37 14z" />
<glyph unicode="q" horiz-adv-x="716" d="M-293 -694q0 70 326 473q203 252 329 403q10 14 10.5 16.5t-2.5 2.5t-55 -37q-164 -111 -210 -135.5t-68 -24.5q-33 0 -39 45q10 125 88 225.5t184 155.5q215 111 371 111l45 -2q39 14 57.5 14t18.5 -14q0 -16 -24.5 -46t-272.5 -313q27 -31 27 -90q0 -10 -5 -31 q45 25 68 39l229 142l2 -23q-180 -121 -303 -182q-31 -129 -174 -310.5t-310 -312.5t-259 -131q-33 0 -33 25zM-252 -671.5q0 -10.5 23 -10.5q174 72 394 301t281 397q-38 -18 -61 -18q-35 0 -41 51q-410 -453 -588 -700q-8 -10 -8 -20.5zM55 49q0 -14 11 -14q31 0 208 129 q223 158 310 258q33 37 55.5 62.5t22.5 30.5t-25 5q-115 0 -256 -92t-233.5 -203.5t-92.5 -175.5zM369 66q-1 -43 30 -43q20 0 54 16q10 35 10 77t-17 42h-4l-73 -84v-8z" />
<glyph unicode="r" horiz-adv-x="522" d="M-59 -4q4 6 51 57q115 125 207 240l-60 -35q-94 -57 -137 -86l-8 23l129 81q70 45 120 94.5t68.5 80t32.5 51t26.5 20.5t39.5 -14q0 -20 -33 -71.5t-66 -92.5l-32 -39q0 -4 2 -4q6 0 14 7t68.5 57.5t105.5 86t103.5 68.5t85 33t26.5 -12q0 -16 -100 -70 q-23 -12 -69 -117.5t-46 -154.5q-1 -11 19 -11h1q20 0 76 37l127 80l17 -18q-94 -57 -153.5 -96t-90.5 -39q-45 0 -45 38q0 29 31.5 114t44.5 120l-7 6q-8 0 -18 -8q-207 -166 -267.5 -223.5t-116.5 -123t-61.5 -71.5t-7.5 -8q-6 -6 -41.5 -6t-35.5 6z" />
<glyph unicode="s" horiz-adv-x="528" d="M8 88q0 43 30 74t71 31t41 -33q0 -18 -13.5 -34.5t-33 -16.5t-22.5 18t-11 18q-14 0 -23.5 -14t-9.5 -41t24.5 -52.5t69.5 -25.5t85 33t54.5 57.5t61.5 138t98 179.5l4 8q0 2 -6 2q-16 0 -272 -160l-84 -53q-10 -6 -25 -16l-6 24q231 147 377 230l55 32q31 25 68 58 q76 59 82 59q10 0 10 -9t-16.5 -30.5t-46 -50.5t-35.5 -37q-31 -31 -102 -195.5t-77 -177.5q0 -8 5.5 -8t7.5 2l229 146l2 -27q-25 -14 -82 -51t-80.5 -51.5t-68.5 -42t-70 -40l-57 -28.5q-81 -24 -105 -24h-2h-2q-55 0 -90 32.5t-35 75.5z" />
<glyph unicode="t" horiz-adv-x="296" d="M-61 14q0 57 147 260t340 431q-197 4 -242 4t-45 22q0 8 19 8l293 -6q250 293 276 293q55 0 55 -17.5t-227 -277.5l344 -6q27 0 27 -7t-8 -9q-12 -6 -203 -7h-185q-133 -152 -194.5 -220t-159.5 -183q-182 -213 -182 -254q0 -8 15.5 -8t103.5 48t133 81l123 76l2 -23 q-322 -219 -410 -219q-23 0 -22 14z" />
<glyph unicode="u" horiz-adv-x="712" d="M41 225l70 43q178 115 229 174q18 23 43 58t41 35t35 -31q0 -37 -185.5 -242t-185.5 -223q0 -4 12.5 -4t143.5 84q274 176 473 387q49 45 86 45h4q39 -2 39 -10l-2 -4q-88 -82 -262 -276.5t-174 -229.5q0 -8 13 -8t279 167l84 54l2 -25q-25 -16 -63 -41 q-303 -192 -355 -192h-1q-19 0 -19 21t50 116q50 96 73 123l-33 -19q-309 -221 -370 -221q-25 0 -25 27.5t22.5 72t42 71t58.5 72.5t41 48l-160 -94z" />
<glyph unicode="v" horiz-adv-x="475" d="M-35 37q0 43 79 170t159 230.5t92 103.5h14q51 0 51 -17q0 -6 -9 -17t-51 -66.5t-83 -112t-88 -121.5q-106 -147 -106 -174q0 -2 4 -2q111 0 323 217q29 90 95.5 189.5t103.5 99.5q18 0 18 -19q0 -72 -184 -264q-12 -33 -12 -56.5t16 -23.5q57 0 166 72l10 -19 q-133 -88 -192 -88q-33 0 -33 43q0 18 2 29q-217 -217 -344 -217q-31 0 -31 43zM403 303q135 150 136 189q-1 6 -7 6q-18 0 -58 -62.5t-71 -132.5z" />
<glyph unicode="w" horiz-adv-x="825" d="M-51 49q0 43 93 170t188.5 230.5t107.5 103.5h14q51 0 51 -16q0 -6 -12 -21.5t-110 -124.5q-272 -301 -273 -338q0 -2 4 -2q31 0 174.5 100.5t197.5 146.5t137 133t92.5 98.5t13.5 17.5q14 16 51 20q57 -6 57 -24q0 -10 -18 -33q-80 -80 -242 -260t-162 -221q0 -8 11 -9 q111 0 407 259q61 113 164.5 235.5t140.5 122.5q23 0 23 -19q0 -37 -83 -132t-206 -203q-43 -70 -43 -92.5t21 -22.5q55 0 155 78l10 -19q-129 -96 -186 -96q-35 0 -35 39q0 20 17 59q-127 -104 -240 -172.5t-172 -70.5q-41 0 -41 35.5t58.5 132t58.5 100.5t-2 4 q-6 0 -33 -22.5t-159 -116.5t-160.5 -103.5t-38.5 -9.5q-31 0 -31 43zM813 352q213 199 213 240q0 6 -6 6q-16 0 -82 -78t-125 -168z" />
<glyph unicode="x" horiz-adv-x="636" d="M-78 -18q0 16 78 49t252 147l65 43q25 78 53.5 149.5t28.5 76t-4 4.5q-94 -94 -299 -222q-43 -27 -45 -28l-6 24q168 104 241.5 166t90.5 80l14 16q8 14 45 14.5t37 -35.5t-57 -175q66 47 145 108q205 143 238 144q8 0 8 -9.5t-16 -19.5q-113 -66 -230 -149l-162 -115 q-55 -145 -67 -213q0 -8 12 -8t104.5 53t174.5 106l84 54l2 -25q-330 -219 -402 -219q-23 0 -23 52q0 54 21 132q-41 -29 -152.5 -97.5t-153.5 -91t-57.5 -22.5t-19.5 11z" />
<glyph unicode="y" horiz-adv-x="702" d="M-391 -723q0 100 92 211q106 125 193.5 196.5t130.5 106.5q154 119 211 160q84 102 124 147q86 100 148 174l-25 -16q-29 -18 -45 -29q-309 -221 -370 -221q-25 0 -25 27.5t24.5 74t47 77t63.5 78.5t43 50l-174 -110l-6 22l78 54q145 100 189 138t85 97q14 20 30.5 20.5 t35.5 -30.5q0 -37 -185.5 -242t-185.5 -223q0 -4 12.5 -4t143.5 84t200 139q111 90 203 201l37 47q49 45 86 45h4q39 -2 39 -10l-2 -4q-68 -78 -229.5 -274.5t-184.5 -235.5q16 0 110.5 53t180.5 108l84 54l2 -25q-131 -90 -246 -151l-186 -97q-162 -219 -404.5 -470 t-285.5 -251t-43 29zM-338 -692q0 -13 6 -13q12 0 138 143.5t247 287.5l119 145q0 4 -4 4q-506 -369 -506 -567z" />
<glyph unicode="z" horiz-adv-x="677" d="M-489.5 -710.5q0.5 22.5 24 64.5t83.5 109.5t149 143.5q201 176 561 375q45 63 45 91.5t-27 28.5q-47 0 -128 -29.5t-114.5 -49t-45 -19.5t-11.5 6q0 12 25.5 27.5t100.5 65t183.5 126t189.5 156.5t81 127q0 6 -16.5 6t-65.5 -20.5t-114.5 -59.5t-122 -73.5t-130.5 -81.5 t-94.5 -59.5t-34.5 -22.5l-6 24q231 147 377 230l55 32q18 8 53 29q72 43 107 43q61 0 61 -64.5t-59 -133t-132 -110.5t-132.5 -75t-59.5 -41t11 -8q98 0 98 -76v-12l332 203l2 -23q-133 -86 -246 -153q-53 -29 -94 -58q-33 -123 -220.5 -304t-385 -309t-273.5 -128 q-27 0 -26.5 22.5zM-446 -688q0 -8 10 -8q84 0 338 225t395 412q-276 -156 -509.5 -362t-233.5 -267z" />
<glyph unicode="{" horiz-adv-x="694" d="M61 -127q0 63 84 192.5t168 259.5t84 195q0 84 -133 84q-20 0 -94 -8q-8 0 -8 10t15.5 27.5t31.5 17.5q131 12 227 64.5t153.5 127.5t104.5 162t97.5 172t115 154.5t175 112.5t259.5 43q19 0 19 -6q0 -10 -37 -27q-186 0 -317 -143q-59 -63 -114.5 -142t-115 -163 t-125 -159t-162 -134.5t-210.5 -83.5q147 0 147 -111q0 -92 -130 -326.5t-130 -300t49 -65.5q41 0 81 21.5t44 21.5t4 -5t-18 -18q-119 -63 -185 -63q-80 0 -80 90z" />
<glyph unicode="|" horiz-adv-x="561" d="M125 -219q94 229 227 661q209 674 320 1108q12 49 28 56q14 0 25.5 -16.5t11.5 -26.5q0 -55 -212 -742.5t-347 -1039.5q-16 -33 -26 -33q-19 0 -27 33z" />
<glyph unicode="}" horiz-adv-x="897" d="M-287 -256q0 10 37 27q186 0 318 143q59 63 114.5 142t114.5 163t124.5 159t162 134t211.5 84q-147 0 -148 111q0 92 130 326.5t130 300t-49 65.5q-41 0 -81 -21.5t-44 -21.5t-4 5t19 17q119 63 184 64q80 0 80 -90q0 -63 -84 -192.5t-168 -259.5t-84 -195q0 -84 133 -84 q20 0 94 8q8 0 8 -10.5t-15 -28t-32 -17.5q-131 -12 -227 -64t-153.5 -127t-104.5 -162t-97.5 -172t-115 -154.5t-175 -112.5t-259.5 -43q-19 0 -19 6z" />
<glyph unicode="~" horiz-adv-x="757" d="M166 251q0 7 8 15q47 47 127 47q37 0 127 -22.5t167 -22.5t107 35q2 4 10.5 4t8.5 -11t-2 -13q-49 -59 -150 -60q-57 0 -144 26.5t-144.5 27t-90.5 -30.5q-2 -2 -13 -2t-11 7z" />
<glyph unicode="&#xa1;" horiz-adv-x="630" d="M-369 -605q0 50 250 364.5t559 668.5q23 23 37.5 23t14.5 -33v-8q-223 -276 -477.5 -605t-317.5 -419q-29 -41 -47.5 -41t-18.5 50zM539 594q0 16 27.5 46t61.5 30t34 -33q0 -27 -30 -55.5t-51.5 -28.5t-31.5 12.5t-10 28.5z" />
<glyph unicode="&#xa2;" horiz-adv-x="475" d="M-88 -145q0 14 104 151q-16 18 -16 78q0 129 177 299t337 178q41 55 72 103q49 84 59 84q14 0 14 -37q0 -14 -108 -154q16 -10 16 -27q0 -45 -70.5 -118.5t-101 -73.5t-30.5 22q0 15 10 33.5t20.5 18.5t18.5 -15q115 90 114 133q0 6 -10 7q-66 0 -180.5 -92.5 t-203.5 -212t-89 -189.5q0 -18 18 -18q76 0 299 139l123 80l2 -27q-51 -33 -116 -74q-225 -141 -320 -147q-37 -49 -63 -94q-51 -84 -62 -84q-14 0 -14 37z" />
<glyph unicode="&#xa3;" horiz-adv-x="1277" d="M84 -175.5q0 105.5 53 244t105.5 214t66.5 75.5q6 0 6 -8l-2 -18q25 -121 123 -195l187 285h-172q-18 0 -19 12q0 35 43 35q109 0 176 -4l41 63h-186q-18 0 -18.5 15.5t14 25t28.5 9.5l193 -5q213 315 364.5 498.5t235.5 183.5q41 0 41 -74.5t-51 -208.5t-125 -240.5 t-127 -106.5q-35 0 -35 68.5t54.5 196.5t86.5 128q12 0 13 -17q0 -4 -2 -8q-41 -53 -75 -144t-34 -138t21 -47q55 0 148 208.5t93 313.5q0 41 -22 41q-35 0 -159 -166t-351 -492l176 -6q41 0 41 -9t-22.5 -18.5t-81 -9.5t-142.5 2l-47 -65l203 -8q41 0 41 -9.5t-24.5 -18.5 t-40 -9t-208.5 4l-221 -309q106 -63 227 -63.5t248 21t195 44.5l67 20h7q10 0 10 -9t-13 -13q-332 -104 -550 -105q-125 0 -228 55q-258 -344 -323 -344q-29 0 -29 105.5zM139 -176q0 -41 13 -45q40 0 249 307q-96 74 -131 186q-131 -184 -131 -448z" />
<glyph unicode="&#xa4;" horiz-adv-x="536" d="M145 223v6l76 86q-29 20 -28.5 74.5t57.5 116.5l-72 84v6q0 20 9.5 20t23.5 -14l61 -76q66 59 150 60q12 0 33 -4l71 86q14 14 23.5 14t9.5 -20v-7l-76 -86q33 -20 33 -63q0 -82 -82 -152l64 -71v-7q0 -20 -9.5 -20t-23.5 14q-30 39 -55 66q-57 -37 -103.5 -37t-56.5 4 l-72 -86q-14 -14 -23.5 -14t-9.5 20zM246 378q0 -54 53 -54t104.5 65.5t51.5 119.5t-53.5 54t-104.5 -65.5t-51 -119.5z" />
<glyph unicode="&#xa5;" horiz-adv-x="833" d="M86 -63q111 129 238 309h-201q-18 0 -19 12q0 35 47.5 35t202.5 -4l29 41h-209q-18 0 -18 15t14 24.5t67.5 9.5t174.5 -6l49 78q4 6 121 176q266 391 295 555q-4 45 -52 45q-84 0 -197.5 -84t-205.5 -194.5t-156.5 -219t-64.5 -146.5t22 -38q78 0 178.5 73.5t194.5 182.5 q8 8 13 8t5 -8t-8 -19q-55 -80 -184 -170t-213 -90q-33 0 -33 56.5t51.5 166t135 220t209.5 191.5t255 81q80 0 80 -89t-97 -256t-222 -343t-127 -178h4q563 590 952 813q158 92 256 92q25 0 25 -8t-39 -35q-100 -72 -108.5 -72t-8.5 4l21 27q0 2 -7 2q-109 0 -441.5 -260 t-616.5 -563l145 -6q41 0 41 -9.5t-22.5 -18.5t-76 -9t-126.5 2l-39 -45l178 -6q41 0 41 -9.5t-24.5 -18.5t-41 -9t-188.5 4l-18 -23l-183 -256q-29 -33 -88 -33q-10 0 -10 3z" />
<glyph unicode="&#xa6;" horiz-adv-x="561" d="M125 -219l262 807q12 49 29 55q14 0 25.5 -16.5t11.5 -26.5l-275 -819q-16 -33 -26 -33q-19 0 -27 33zM459 809l243 747q12 49 29 56q14 0 25.5 -16.5t11.5 -26.5l-256 -760q-16 -33 -27 -33q-18 0 -26 33z" />
<glyph unicode="&#xa7;" horiz-adv-x="733" d="M-2 8q0 82 89 175t177 93q25 0 25 -21.5t-25.5 -46t-43 -24.5t-17.5 9q0 2 19.5 13t19.5 15t-17 4q-57 0 -118.5 -75.5t-61.5 -139.5q0 -72 88 -71q131 0 224.5 86t93.5 202.5t-44.5 236t-44.5 144.5q0 66 45.5 107t141.5 82q-27 68 -27 116q0 82 111.5 135.5t246 53.5 t134.5 -76q0 -66 -106.5 -167t-200.5 -109q-29 0 -29 26q0 16 13.5 35.5t27.5 22.5q12 0 12 -15q0 -2 -8 -12q70 8 170 89t100 124q0 53 -104.5 53t-203.5 -45t-99 -108.5t82 -209t82 -202.5q0 -238 -222 -313q-14 -74 -64 -130.5t-112 -84.5q-129 -61 -227 -62 q-127 0 -127 90zM430 640q0 -42 27 -91q78 -148 78 -291v-31q131 70 131 252q0 68 -48.5 168.5t-58.5 124.5q-74 -35 -101.5 -62.5t-27.5 -69.5z" />
<glyph unicode="&#xa8;" horiz-adv-x="747" d="M248 713.5q0 31.5 30.5 60.5t52 29t33 -12.5t11.5 -29t-29 -48t-63.5 -31.5t-34.5 31.5zM412 713.5q0 31.5 30.5 60.5t52 29t33 -12.5t11.5 -29t-29 -48t-63.5 -31.5t-34.5 31.5z" />
<glyph unicode="&#xa9;" horiz-adv-x="1024" d="M115 108.5q0 77.5 42 172t117.5 180.5t200.5 142t273 56q70 0 105.5 -42t35.5 -117.5t-46 -171t-125 -182.5t-205 -145t-267 -58q-63 0 -97 44t-34 121.5zM188 86q0 -113 80 -113q121 0 227.5 58.5t172 144.5t103.5 177t38 165q0 113 -80 113q-121 0 -227.5 -58.5 t-172 -144.5t-103.5 -177t-38 -165zM254 127q0 100 146.5 251.5t291.5 151.5q33 0 33 -24q0 -37 -56.5 -96.5t-81 -59.5t-24.5 19q0 10 8.5 25.5t16.5 15.5l14 -11q92 72 92 107q0 4 -8 4q-82 0 -224.5 -144.5t-142.5 -232.5q0 -14 17 -14q80 0 225 92l98 65l3 -22 q-259 -176 -357 -176q-51 0 -51 49z" />
<glyph unicode="&#xaa;" horiz-adv-x="616" d="M193 627q0 121 135 233.5t327 112.5q16 0 16.5 -14.5t-135 -167t-135.5 -185.5q0 -4 9 -4q25 0 196 111l58 39l2 -19q-231 -154 -281 -153q-8 0 -8 10q0 25 20 86l9 20q0 2 -4.5 2t-82.5 -57t-102 -57t-24 43zM227 625q0 -8 9 -9q36 1 200 134q25 20 95.5 100t70.5 92 q0 6 -12 6q-100 0 -231.5 -124t-131.5 -199z" />
<glyph unicode="&#xab;" horiz-adv-x="962" d="M203 272q0 31 57 41l361 54q12 0 12 -7.5t-10 -11.5l-344 -51q-29 -6 -29 -18q0 -7 12 -13l307 -147q10 -6 11 -15q0 -18 -29 -18l-272 131q-6 2 -15.5 7t-13.5 7t-11.5 5.5t-11.5 5.5t-8 5t-7 6l-5 5q-4 8 -4 14zM438 246q0 29 49 35l306 45q8 0 8 -4l-6 -13l-293 -43 q-23 -4 -23 -10t8 -14l263 -127q2 -6 2 -13q0 -16 -17 -16q-41 20 -140 67.5t-128 63.5t-29 29z" />
<glyph unicode="&#xac;" horiz-adv-x="819" d="M221 492q0 16 27 20h10l59 2q162 6 254 12l191 13q16 0 20 -13l-120 -207q-4 -16 -17.5 -16t-13.5 12q0 6 14 37t23 43l47 88q-63 -4 -246 -4l-221 2q-25 0 -27 11z" />
<glyph unicode="&#xad;" horiz-adv-x="1024" d="M186 240q0 16 33 20l47 2q55 0 357 12l239 13q23 0 25 -13q0 -18 -17.5 -29.5t-88 -14.5t-285.5 -3l-277 2q-31 0 -33 11z" />
<glyph unicode="&#xae;" horiz-adv-x="1024" d="M115 108.5q0 77.5 42 172t117.5 180.5t200.5 142t273 56q70 0 105.5 -42t35.5 -117.5t-46 -171t-125 -182.5t-205 -145t-267 -58q-63 0 -97 44t-34 121.5zM188 86q0 -113 80 -113q203 0 357 158q-53 -31 -93 -31q-70 0 -69 119q0 59 12 115q0 12 2 20q-41 -76 -126 -163 t-107 -87q-31 0 -31 31q0 53 78 154.5t201.5 188.5t228.5 87q70 0 70 -43q0 -61 -111 -150t-193 -89h-4q6 -168 58 -168q35 0 110 45q74 84 116 183t42 177q0 111 -80 111q-121 0 -227.5 -58.5t-172 -144.5t-103.5 -177t-38 -165zM248 119q0 -2 2 -2q25 0 124 131t106 153.5 t12.5 22.5t5.5 -16.5t-2 -20.5l-15 -29q4 4 6 4v-2l-2 -24q-2 -27 -2 -37h2q59 0 159.5 89t100.5 136q0 23 -32 23q-74 0 -186.5 -82t-195.5 -184.5t-83 -161.5z" />
<glyph unicode="&#xaf;" horiz-adv-x="604" d="M336 668q0 16 24 20h11l55 2q162 8 238 12l178 13q18 0 18 -13q0 -18 -13 -29t-64.5 -14.5t-215.5 -3.5l-207 2q-25 0 -24 11z" />
<glyph unicode="&#xb0;" horiz-adv-x="303" d="M225 750q0 59 64.5 118.5t124.5 59.5q31 0 52 -23.5t21 -59.5t-58 -101.5t-144 -65.5q-27 0 -43.5 21.5t-16.5 50.5zM276 742.5q0 -37.5 23 -37.5q51 0 93 53t42 99t-39 46t-79 -61.5t-40 -99z" />
<glyph unicode="&#xb1;" horiz-adv-x="819" d="M150 229q0 16 26 21h10l60 2q162 6 254 12l190 12q18 0 21 -12q0 -18 -14.5 -29.5t-71 -14.5t-228.5 -3l-221 2q-25 0 -26 10zM248 543q0 23 63 22h27q74 0 184 8q63 127 111 224q8 12 16 12q25 -10 25 -30.5t-29 -73t-72 -130.5q14 0 215 15q18 0 21 -12 q0 -18 -14.5 -29.5t-62.5 -15t-185 -3.5l-121 -206q-4 -16 -17.5 -16.5t-13.5 11.5q0 6 14.5 37t51.5 98.5t41 75.5h-6l-222 2q-25 0 -26 11z" />
<glyph unicode="&#xb2;" horiz-adv-x="612" d="M29 324q0 43 117.5 115.5t218.5 72.5h4q160 127 267 262t107 234q0 20 -7 27t-27 7q-88 0 -213 -134t-125 -181q0 -8 6 -8q43 0 104.5 40t102.5 81l41 41q6 4 14 4t4 -15q-47 -61 -134 -115.5t-134 -54.5t-47 41q0 84 121.5 201t259.5 117q33 0 56 -23.5t23 -70.5 q0 -82 -104 -218t-258 -247l-16 -13q14 -6 75.5 -50t102.5 -44q76 0 149 41l25 15l8 2q8 0 8 -7q-2 -4 -4 -6q-100 -78 -221 -78q-72 0 -147 58q-33 25 -50 33q-88 -57 -178 -101.5t-119.5 -44.5t-29.5 19zM66 330q0 -4 6 -4q104 41 243 145q-70 0 -159.5 -58t-89.5 -83z " />
<glyph unicode="&#xb3;" horiz-adv-x="485" d="M33 344q0 41 93 111.5t146 70.5q16 0 16.5 -14t-15 -29.5t-29 -15.5t-13.5 4t12.5 9t12.5 9.5t-14.5 4.5t-97.5 -67t-83 -89q0 -8 11 -8q88 0 204.5 86t194.5 184t78 141q0 18 -21.5 18.5t-46 -3.5t-45.5 -15q-37 -16 -57.5 -28.5t-26.5 -12.5t-6 9q0 8 68.5 50 t153.5 132t85 133q0 23 -32 23q-68 0 -153 -56.5t-142 -116.5q-4 -4 -16.5 -4t-12.5 9q188 188 334 188q68 0 67.5 -50t-63 -122t-166.5 -131q31 10 59 10q66 0 66 -53q0 -61 -76 -155.5t-200.5 -170.5t-241.5 -76q-43 0 -43 25z" />
<glyph unicode="&#xb4;" horiz-adv-x="727" d="M233 623q0 8 14.5 13t46.5 22.5t83 47t100 54.5q27 10 43 10q25 0 25 -28.5t-141.5 -76t-156 -47.5t-14.5 5z" />
<glyph unicode="&#xb5;" horiz-adv-x="712" d="M-385 -401.5q0 12.5 23 41.5q238 279 406.5 469t229 258.5t119.5 146.5q18 20 41 20.5t47 -8.5q-78 -106 -334 -401q-59 -70 -59 -80t12.5 -10t143.5 84q274 176 473 387q49 45 86 45h4q39 -2 39 -10l-2 -4q-88 -82 -262 -276.5t-174 -229.5q0 -8 13 -8t279 167l84 54 l2 -25q-25 -16 -63 -41q-305 -193 -356 -192q-18 0 -18.5 20.5t50 116.5t72.5 123l-33 -19q-309 -221 -370 -221q-14 0 -21 8q-285 -330 -321 -379q-39 -51 -74 -51v2q-37 0 -37 12.5z" />
<glyph unicode="&#xb6;" horiz-adv-x="778" d="M-160 -295q0 76 500 680q166 201 166 213q0 2 -5 2t-57.5 -49t-129 -98.5t-144.5 -49.5q-33 0 -39 46q10 125 88 225t182 153q217 113 377 113t160 -66q0 -25 -27 -57q-645 -694 -899 -1050q66 18 76 18t10 -6t-10 -15q-215 -78 -223 -77q-25 0 -25 18zM-119 -272 q41 10 86 24q263 371 738 899q182 201 187 208t5 11q0 10 -16.5 10.5t-44.5 -28.5q-524 -524 -947 -1104q-8 -10 -8 -20z" />
<glyph unicode="&#xb7;" horiz-adv-x="604" d="M569 676q0 31 30 58.5t51.5 27.5t31.5 -12.5t10 -27.5t-27.5 -46t-61.5 -31t-34 31z" />
<glyph unicode="&#xb8;" horiz-adv-x="466" d="M102 -196.5q0 6.5 8.5 6.5t22.5 -13.5t57 -13.5t84 30.5t41 65.5q0 53 -90 55l43 74l23 -8l-31 -49q104 -2 105 -53q0 -43 -62.5 -86t-115 -43t-81.5 24q-4 4 -4 10.5z" />
<glyph unicode="&#xb9;" horiz-adv-x="440" d="M162 293q0 12 18 31q18 25 186.5 320.5t194.5 336.5q-104 -92 -195.5 -143.5t-134.5 -51.5q-12 0 -12 15q0 4 2 4q72 0 204 100.5t153 134.5q8 8 26 15q49 0 49 -13q0 -6 -18.5 -37.5t-114.5 -197.5q-211 -362 -311 -502q-18 -18 -23 -18q-25 2 -24 6z" />
<glyph unicode="&#xba;" horiz-adv-x="378" d="M174 651q0 109 124 214.5t206 105.5q39 0 39 -35q0 -121 -135.5 -224.5t-206.5 -103.5q-27 0 -27 43zM207 639q0 -8 10 -8q57 0 182 119t125 182q0 18 -16 18q-53 0 -177 -121.5t-124 -189.5z" />
<glyph unicode="&#xbb;" horiz-adv-x="962" d="M186 162l7 12l292 43q23 4 23 10.5t-8 14.5l-262 127q-2 6 -2 12q0 16 16 16q41 -20 140.5 -67t128 -63.5t28.5 -28.5q0 -29 -49 -35l-305 -45q-8 0 -9 4zM354.5 124q-0.5 7 10.5 11l344 51q29 6 28 19q0 6 -12 12l-307 148q-10 6 -10 14q0 18 28 18l273 -131q6 -2 15 -7 t13 -7t11.5 -5t11.5 -5t8 -5.5t7 -6.5l5 -5q4 -8 4 -14q0 -31 -57 -41l-360 -53q-12 0 -12.5 7z" />
<glyph unicode="&#xbc;" horiz-adv-x="1116" d="M63 -61q296 323 658 927q139 229 156.5 255t36 26t18.5 -51q0 -18 -124 -217t-325.5 -483.5t-367.5 -475.5q-23 -23 -37.5 -22.5t-14.5 32.5v9zM162 293l24 -6q4 0 23 18q100 139 253.5 403.5t172 296t18.5 41t-49 9.5q-18 -6 -26 -15q-20 -35 -152.5 -135t-204.5 -100 q-2 0 -2 -4q0 -15 12 -15q43 0 117 41q109 61 213 154q-27 -41 -194.5 -337t-186.5 -320q-18 -18 -18 -31zM469 197q0 -18 23 -21q27 0 69.5 25.5t83.5 74.5q53 0 172 -59q-86 -154 -119 -203q-18 -18 -18 -30l14 -9q8 0 23 19q12 18 41 59q61 86 98 144q53 -29 100.5 -29 t91.5 40t44 66.5t-24 26.5t-52 -27q-37 -33 -37 -44t8 -11q51 63 76 64q6 0 6 -13.5t-31.5 -43t-64.5 -29.5t-90 34l247 422l7 23q0 18 -21.5 18t-34.5 -14q-20 -33 -108 -190.5t-133 -235.5q-2 0 -4 2q-84 43 -168 45q106 106 212.5 244.5t106.5 167.5q0 14 -19.5 14 t-42 -18.5t-22.5 -26.5h6q6 0 9 2q-16 -39 -113.5 -165t-186.5 -220q-119 -25 -145 -86q-4 -8 -4 -16zM485 197q0 14 35 40.5t74 36.5q-77 -81 -102 -81q-6 0 -7 4z" />
<glyph unicode="&#xbd;" horiz-adv-x="1140" d="M63 -61q296 323 658 927q139 229 156.5 255t36 26t18.5 -51q0 -18 -124 -217t-325.5 -483.5t-367.5 -475.5q-23 -23 -37.5 -22.5t-14.5 32.5v9zM162 293l24 -6q4 0 23 18q100 139 253.5 403.5t172 296t18.5 41t-49 9.5q-18 -6 -26 -15q-20 -35 -152.5 -135t-204.5 -100 q-2 0 -2 -4q0 -15 12 -15q43 0 117 41q109 61 213 154q-27 -41 -194.5 -337t-186.5 -320q-18 -18 -18 -31zM342 -10q0 43 118 115.5t218 72.5h4q160 127 267.5 262t107.5 234q0 20 -7.5 27.5t-27.5 7.5q-88 0 -213 -134.5t-125 -181.5q0 -8 6 -8q43 0 104.5 41t102.5 82 l41 39q6 4 13 4t7 -6l-2 -8q-47 -61 -134 -115.5t-134 -54.5t-47 41q0 84 122 200.5t259 116.5q33 0 56.5 -23.5t23.5 -70.5q0 -82 -104.5 -218.5t-258.5 -246.5l-16 -12q14 -6 75.5 -50.5t102.5 -44.5q84 0 152 41l22 15l8 2q8 0 9 -6q-2 -4 -5 -7q-100 -78 -221 -77 q-72 0 -147 57q-33 25 -49 33q-88 -57 -178.5 -101.5t-120 -44.5t-29.5 19zM379 -4q0 -4 6 -4q104 41 244 145q-70 0 -160 -58t-90 -83z" />
<glyph unicode="&#xbe;" horiz-adv-x="1234" d="M33 344q0 -25 43 -25q117 0 241.5 76t200.5 170t76 156q0 53 -66 53q-28 0 -59 -10q104 59 166.5 131t62.5 122t-67 50q-145 0 -334 -188q0 -8 12.5 -8.5t16.5 3.5q57 59 142 116t153 57q33 0 32 -23q0 -43 -85 -133t-153.5 -131t-68.5 -50.5t6 -9.5q4 0 21.5 10.5 t30 16.5t32.5 14q39 18 94 19q18 0 19 -19q0 -43 -78 -141t-194.5 -184t-204.5 -86q-10 0 -11 8q0 23 83 89.5t97.5 66.5t14.5 -4.5t-12.5 -9.5t-12.5 -9t13.5 -4t29 15.5t15.5 29.5t-17 14q-53 0 -146 -70.5t-93 -111.5zM158 -61q295 323 657 927q139 229 156.5 255t36 26 t18.5 -51q0 -18 -124 -217t-325.5 -483.5t-367.5 -475.5q-23 -23 -37 -22.5t-14 32.5v9zM563 199.5q0 -23.5 24.5 -23.5t67.5 25.5t84 74.5q53 0 172 -59q-86 -154 -118 -203q-18 -18 -19 -30l14 -9q8 0 23 19q12 18 41 59q61 86 98 144q53 -29 100.5 -29t91.5 40t44 66.5 t-23.5 26.5t-52.5 -27q-37 -33 -37 -44t8 -11q51 63 76 64q6 0 6 -13.5t-31.5 -43t-64.5 -29.5t-90 34l248 422l6 23q0 18 -21.5 18t-33.5 -14q-20 -33 -108.5 -190.5t-133.5 -235.5q-2 0 -4 2q-84 43 -168 45q106 106 212.5 244.5t106.5 167.5q0 14 -19.5 14t-42 -18.5 t-22.5 -26.5h7q6 0 8 2q-16 -39 -113.5 -165t-185.5 -220q-72 -14 -111 -45t-39 -54.5zM580 197q0 14 34.5 40.5t73.5 36.5q-77 -81 -102 -81q-6 0 -6 4z" />
<glyph unicode="&#xbf;" horiz-adv-x="770" d="M-240 -474.5q0 105.5 59.5 182.5t148.5 126t193.5 103.5t196 102.5t154.5 123t70 163q0 82 -29 94q-10 6 -10 11t23.5 5t49 -30.5t25.5 -86.5q-10 -100 -93 -181t-194.5 -139t-221 -120.5t-185.5 -156t-76 -211.5q0 -176 156.5 -176.5t330.5 146t174 302.5q0 80 -53 80 q-70 0 -193.5 -112.5t-148.5 -170.5q-6 -14 -18.5 -14t-12.5 14q0 2 5 14q45 78 171 185.5t202.5 107.5t76.5 -116q0 -197 -176 -333t-367 -136q-115 0 -186.5 59t-71.5 164.5zM643 589.5q0 16.5 27.5 46.5t61.5 30t34 -33q0 -27 -29.5 -55.5t-51 -28.5t-32 12t-10.5 28.5z " />
<glyph unicode="&#xc0;" horiz-adv-x="1015" d="M-35 72q0 -139 101 -140q90 0 286.5 144.5t347.5 288.5l152 143q4 0 4 -6t-81 -118t-162 -245t-81 -192q0 -37 35 -37q39 0 94.5 29.5t90 50t85 54.5t83 56.5t87.5 60.5t80 56q70 43 112 68.5t42 29.5t-16.5 4t-30.5 -8l-137 -86q-360 -250 -408.5 -273.5t-65 -23.5 t-16.5 17q0 92 594 827q199 246 199 267.5t-28.5 21.5t-80.5 -64q-303 -385 -727 -751q-328 -283 -438 -283q-63 0 -63 80t58 218t154.5 297t228.5 324t273.5 298t298 218t289.5 85q51 0 51 -39q0 -61 -111.5 -195.5t-237.5 -243t-169 -108.5q-12 0 -12 8t25.5 36t25.5 37 t-12.5 9t-58.5 -55t-46 -83t27 -28q68 0 217.5 119t273 269.5t123.5 230.5q0 61 -82 61q-213 0 -428 -111.5t-379.5 -282.5t-296 -366.5t-201 -374t-69.5 -294.5zM1202 1704q0 23 24.5 22.5t35.5 -10.5q180 -143 193 -150t13 -11.5t-15 -4.5t-133 60.5t-118 93.5z" />
<glyph unicode="&#xc1;" horiz-adv-x="1015" d="M-35 72q0 117 69.5 295t201 373.5t296 366.5t379.5 282.5t428 111.5q82 0 82 -61q0 -80 -123.5 -230.5t-273.5 -269.5t-217 -119q-27 0 -27 28t46 83t63 55q8 0 8 -9t-25.5 -37t-25.5 -36t12 -8q43 0 169 108.5t237.5 242.5t111.5 196q0 39 -51 39q-133 0 -289.5 -85 t-298 -218t-273.5 -298t-228.5 -324t-154.5 -297t-58 -218t63 -80q111 0 438 283q424 367 727 751q51 63 80 63.5t29 -21t-199 -267.5q-594 -735 -594 -827q0 -16 16.5 -16.5t44 13t80 47.5t91.5 60q94 61 258 176l137 86q14 8 30.5 8t16.5 -4t-6 -8l-148 -90 q-25 -18 -80 -56t-87.5 -60.5t-83 -56.5t-85 -54.5t-71.5 -40.5q-76 -41 -113 -41q-35 0 -35 39q0 59 81 192t162 245t81 118t-4 6q-25 -23 -64.5 -61.5t-152.5 -138t-208 -175.5t-200.5 -138.5t-160.5 -62.5q-100 0 -101 140zM1221 1559q0 8 14 13t46 22.5t83 47t100 54.5 q27 10 43 10q25 0 25 -28.5t-141.5 -76t-155.5 -47.5t-14 5z" />
<glyph unicode="&#xc2;" horiz-adv-x="1015" d="M-35 72q0 117 69.5 295t201 373.5t296 366.5t379.5 282.5t428 111.5q82 0 82 -61q0 -80 -123.5 -230.5t-273.5 -269.5t-217 -119q-27 0 -27 28t46 83t63 55q8 0 8 -9t-25.5 -37t-25.5 -36t12 -8q43 0 169 108.5t237.5 242.5t111.5 196q0 39 -51 39q-133 0 -289.5 -85 t-298 -218t-273.5 -298t-228.5 -324t-154.5 -297t-58 -218t63 -80q111 0 438 283q424 367 727 751q51 63 80 63.5t29 -21t-199 -267.5q-594 -735 -594 -827q0 -16 16.5 -16.5t44 13t80 47.5t91.5 60q94 61 258 176l137 86q14 8 30.5 8t16.5 -4t-6 -8l-148 -90 q-25 -18 -80 -56t-87.5 -60.5t-83 -56.5t-85 -54.5t-71.5 -40.5q-76 -41 -113 -41q-35 0 -35 39q0 59 81 192t162 245t81 118t-4 6q-25 -23 -64.5 -61.5t-152.5 -138t-208 -175.5t-200.5 -138.5t-160.5 -62.5q-100 0 -101 140zM1100 1556v5q0 6 33.5 22t99.5 55 q168 98 185.5 98.5t21.5 -19t9 -50.5t7 -41q6 -31 33 -70l2 -4q0 -6 -16.5 -6t-39 37t-34.5 78l-66 -27q-197 -86 -216 -86t-19 8z" />
<glyph unicode="&#xc3;" horiz-adv-x="1015" d="M-35 72q0 117 69.5 295t201 373.5t296 366.5t379.5 282.5t428 111.5q82 0 82 -61q0 -80 -123.5 -230.5t-273.5 -269.5t-217 -119q-27 0 -27 28t46 83t63 55q8 0 8 -9t-25.5 -37t-25.5 -36t12 -8q43 0 169 108.5t237.5 242.5t111.5 196q0 39 -51 39q-133 0 -289.5 -85 t-298 -218t-273.5 -298t-228.5 -324t-154.5 -297t-58 -218t63 -80q111 0 438 283q424 367 727 751q51 63 80 63.5t29 -21t-199 -267.5q-594 -735 -594 -827q0 -16 16.5 -16.5t44 13t80 47.5t91.5 60q94 61 258 176l137 86q14 8 30.5 8t16.5 -4t-6 -8l-148 -90 q-25 -18 -80 -56t-87.5 -60.5t-83 -56.5t-85 -54.5t-71.5 -40.5q-76 -41 -113 -41q-35 0 -35 39q0 59 81 192t162 245t81 118t-4 6q-25 -23 -64.5 -61.5t-152.5 -138t-208 -175.5t-200.5 -138.5t-160.5 -62.5q-100 0 -101 140zM1161 1584q0 7 8 15q45 45 83 45.5t87.5 -25.5 t78 -26t65.5 43q2 4 10 4t8 -11t-2 -13q-53 -63 -119 -64q-32 0 -83.5 22.5t-72 22.5t-30.5 -10t-21.5 -10t-11.5 7z" />
<glyph unicode="&#xc4;" horiz-adv-x="1015" d="M-35 72q0 -139 101 -140q90 0 286.5 144.5t347.5 288.5l152 143q4 0 4 -6t-81 -118t-162 -245t-81 -192q0 -37 35 -37q39 0 94.5 29.5t90 50t85 54.5t83 56.5t87.5 60.5t80 56q70 43 112 68.5t42 29.5t-16.5 4t-30.5 -8l-137 -86q-360 -250 -408.5 -273.5t-65 -23.5 t-16.5 17q0 92 594 827q199 246 199 267.5t-28.5 21.5t-80.5 -64q-303 -385 -727 -751q-328 -283 -438 -283q-63 0 -63 80t58 218t154.5 297t228.5 324t273.5 298t298 218t289.5 85q51 0 51 -39q0 -61 -111.5 -195.5t-237.5 -243t-169 -108.5q-12 0 -12 8t25.5 36t25.5 37 t-12.5 9t-58.5 -55t-46 -83t27 -28q68 0 217.5 119t273 269.5t123.5 230.5q0 61 -82 61q-213 0 -428 -111.5t-379.5 -282.5t-296 -366.5t-201 -374t-69.5 -294.5zM1163 1602.5q0 31.5 31 60.5t52.5 29t32.5 -12.5t11 -29t-28.5 -48t-63.5 -31.5t-35 31.5zM1327 1602.5 q0 31.5 31 60.5t52.5 29t32.5 -12.5t11 -29t-28.5 -48t-63.5 -31.5t-35 31.5z" />
<glyph unicode="&#xc5;" horiz-adv-x="1015" d="M-35 72q0 117 69.5 295t201 373.5t296 366.5t379.5 282.5t428 111.5q82 0 82 -61q0 -80 -123.5 -230.5t-273.5 -269.5t-217 -119q-27 0 -27 28t46 83t63 55q8 0 8 -9t-25.5 -37t-25.5 -36t12 -8q43 0 169 108.5t237.5 242.5t111.5 196q0 39 -51 39q-133 0 -289.5 -85 t-298 -218t-273.5 -298t-228.5 -324t-154.5 -297t-58 -218t63 -80q111 0 438 283q424 367 727 751q51 63 80 63.5t29 -21t-199 -267.5q-594 -735 -594 -827q0 -16 16.5 -16.5t44 13t80 47.5t91.5 60q94 61 258 176l137 86q14 8 30.5 8t16.5 -4t-6 -8l-148 -90 q-25 -18 -80 -56t-87.5 -60.5t-83 -56.5t-85 -54.5t-71.5 -40.5q-76 -41 -113 -41q-35 0 -35 39q0 59 81 192t162 245t81 118t-4 6q-25 -23 -64.5 -61.5t-152.5 -138t-208 -175.5t-200.5 -138.5t-160.5 -62.5q-100 0 -101 140zM1264 1593q0 49 53 99.5t91 50.5t55.5 -19.5 t17.5 -50.5t-49 -85t-119 -54q-23 0 -36 18.5t-13 40.5zM1307 1588q0 -32 18 -32q43 0 78 44.5t35 83t-33 38.5t-65.5 -51t-32.5 -83z" />
<glyph unicode="&#xc6;" horiz-adv-x="1204" d="M-35 72q0 117 69.5 295t201 373.5t296 366.5t379.5 282.5t428 111.5q72 0 82 -45q246 123 473 123q90 0 91 -51q0 -88 -206 -248t-311 -160q-29 0 -28.5 32t43.5 67.5t54 35.5t11 -9t-19.5 -21.5t-19.5 -21.5t9 -9q57 0 243.5 145.5t186.5 200.5q0 20 -31 21 q-170 0 -363.5 -95.5t-339 -223.5t-241.5 -259t-96 -205q0 -63 73 -63q168 0 377 137q29 18 60.5 39.5t39 27t13.5 5.5t6 -23q0 -14 -160 -110l-51 -33q-213 -127 -423 -374t-210 -372q0 -72 84 -71q131 0 555 284l137 86q14 8 30.5 8t16.5 -4t-6 -8l-147 -90 q-18 -12 -114.5 -76.5t-137.5 -90t-115 -66.5q-137 -78 -221 -78q-137 0 -137 137q0 119 96 270q-432 -381 -577 -381q-100 0 -101 140zM23 43q0 -80 63 -80q82 0 281.5 156.5t410.5 367.5q147 147 301 224q-74 -18 -125 -19q-145 0 -145 113q0 123 166 310.5t399 316.5 q-2 27 -11 39t-38 12q-133 0 -289.5 -85t-298 -218t-273.5 -298t-228.5 -324t-154.5 -297t-58 -218z" />
<glyph unicode="&#xc7;" horiz-adv-x="600" d="M-92 -266q0 6 8 6t22.5 -13.5t57.5 -13.5t84 31t41 66q0 53 -90 55l28 51q-96 23 -96 193q0 129 78 309t218 366.5t315.5 348t393.5 265t425 103.5q113 0 112 -86q0 -102 -137 -279.5t-318.5 -316.5t-289.5 -139q-49 0 -49 29q0 20 44 66t70 46q8 0 8.5 -7t-25.5 -30.5 t-26 -31t4 -7.5q61 0 229.5 127t316 290t147.5 247q0 68 -103 68q-176 0 -373.5 -105.5t-363.5 -270.5t-302 -351.5t-214 -362.5t-78 -296t92 -120q125 0 502 254l137 86q14 8 30.5 8t16.5 -4t-6 -8l-147 -90q-25 -16 -115 -76.5t-133 -87t-113 -65.5q-131 -76 -215 -76h-10 l-18 -31q104 -2 104 -53q0 -43 -62.5 -86t-115.5 -43t-80 25q-4 4 -4 10z" />
<glyph unicode="&#xc8;" d="M-12 49.5q0 -143.5 137 -143.5q84 0 189.5 59.5t146.5 85t137 88.5q127 86 197.5 129t70.5 47t-16 4t-31 -8l-137 -86q-424 -285 -555 -284q-84 0 -84 71q0 125 210 372t422 374t212 143v6q0 16 -6.5 16.5t-13.5 -5t-38.5 -27t-61.5 -41t-79 -46t-94 -44.5 q-111 -45 -194 -45t-83 63q0 74 96.5 205t242 259t339 223.5t363.5 95.5q31 0 31 -21q0 -55 -186.5 -200.5t-244.5 -145.5q-8 0 -8 9t19.5 21.5t19.5 21.5t-11 9t-54 -35.5t-43 -67.5t28 -32q104 0 310 160t206 248q0 51 -90 51q-193 0 -396.5 -87t-351 -211t-242.5 -255 t-95 -221q0 -113 145 -113q51 0 125 19q-227 -113 -379.5 -315.5t-152.5 -346zM1188 1782q0 23 24.5 22.5t34.5 -10.5q180 -143 193.5 -150.5t13.5 -11.5t-15.5 -4t-133 60.5t-117.5 93.5z" />
<glyph unicode="&#xc9;" d="M-12 49.5q0 143.5 152.5 346t379.5 315.5q-74 -18 -125 -19q-145 0 -145 113q0 90 95 221t242.5 255t351.5 211t396 87q90 0 90 -51q0 -88 -205.5 -248t-310.5 -160q-29 0 -28.5 32t43.5 67.5t54 35.5t11 -9t-19.5 -21.5t-19.5 -21.5t8 -9q57 0 244 145.5t187 200.5 q0 20 -31 21q-170 0 -363.5 -95.5t-339 -223.5t-242 -259t-96.5 -205q0 -63 74 -63q168 0 375 137q31 18 62.5 39.5t38.5 27t13.5 5.5t6.5 -17v-6q0 -18 -158 -110l-53 -33q-213 -127 -423 -374t-210 -372q0 -72 84 -71q131 0 555 284l137 86q14 8 30.5 8t16.5 -4t-6 -8 l-147 -90q-18 -12 -114.5 -76.5t-137.5 -90t-117 -66.5q-180 -78 -215 -78h-4q-137 0 -137 143.5zM1155 1651q0 8 14.5 13t46 22.5t83 47t100.5 54.5q27 10 43 10q24 0 24 -28.5t-141 -75.5t-155.5 -47t-14.5 4z" />
<glyph unicode="&#xca;" d="M-12 49.5q0 143.5 152.5 346t379.5 315.5q-74 -18 -125 -19q-145 0 -145 113q0 90 95 221t242.5 255t351.5 211t396 87q90 0 90 -51q0 -88 -205.5 -248t-310.5 -160q-29 0 -28.5 32t43.5 67.5t54 35.5t11 -9t-19.5 -21.5t-19.5 -21.5t8 -9q57 0 244 145.5t187 200.5 q0 20 -31 21q-170 0 -363.5 -95.5t-339 -223.5t-242 -259t-96.5 -205q0 -63 74 -63q168 0 375 137q31 18 62.5 39.5t38.5 27t13.5 5.5t6.5 -17v-6q0 -18 -158 -110l-53 -33q-213 -127 -423 -374t-210 -372q0 -72 84 -71q131 0 555 284l137 86q14 8 30.5 8t16.5 -4t-6 -8 l-147 -90q-18 -12 -114.5 -76.5t-137.5 -90t-117 -66.5q-180 -78 -215 -78h-4q-137 0 -137 143.5zM1096 1618v4q0 6 33.5 22.5t99.5 55.5q168 98 185.5 98t21.5 -19.5t9 -50t7 -40.5q6 -31 33 -70l2 -4q0 -6 -16.5 -6t-39 36.5t-34.5 77.5l-66 -26q-211 -88 -217 -86 q-18 0 -18 8z" />
<glyph unicode="&#xcb;" d="M-12 49.5q0 -143.5 137 -143.5q84 0 189.5 59.5t146.5 85t137 88.5q127 86 197.5 129t70.5 47t-16 4t-31 -8l-137 -86q-424 -285 -555 -284q-84 0 -84 71q0 125 210 372t422 374t212 143v6q0 16 -6.5 16.5t-13.5 -5t-38.5 -27t-61.5 -41t-79 -46t-94 -44.5 q-111 -45 -194 -45t-83 63q0 74 96.5 205t242 259t339 223.5t363.5 95.5q31 0 31 -21q0 -55 -186.5 -200.5t-244.5 -145.5q-8 0 -8 9t19.5 21.5t19.5 21.5t-11 9t-54 -35.5t-43 -67.5t28 -32q104 0 310 160t206 248q0 51 -90 51q-193 0 -396.5 -87t-351 -211t-242.5 -255 t-95 -221q0 -113 145 -113q51 0 125 19q-227 -113 -379.5 -315.5t-152.5 -346zM1098 1662q0 32 30.5 60.5t52 28.5t33 -12.5t11.5 -28.5t-29 -48t-63.5 -32t-34.5 32zM1262 1662q0 32 30.5 60.5t52 28.5t33 -12.5t11.5 -28.5t-29 -48t-63.5 -32t-34.5 32z" />
<glyph unicode="&#xcc;" horiz-adv-x="880" d="M2 -274q0 8 21 24q401 332 878 860q227 252 380 489.5t153 373.5q0 59 -68 59q-139 0 -315.5 -107.5t-315.5 -252t-236.5 -292t-97.5 -222t70 -74.5q100 0 267 101t325 267q10 10 18.5 10.5t8.5 -8t-67 -69t-160 -135t-204.5 -129t-197.5 -54.5q-104 0 -105 105 q0 96 89.5 244.5t226.5 291t329.5 244.5t372.5 102q100 0 101 -127q-23 -164 -123.5 -349t-236.5 -352t-328.5 -353.5t-366.5 -331.5t-385 -307q-20 -14 -29 -15l-4 2v5zM1237 1745q0 23 24.5 22.5t34.5 -10.5q180 -143 193.5 -150.5t13.5 -11.5t-15 -4t-133 60.5t-118 93.5 z" />
<glyph unicode="&#xcd;" horiz-adv-x="880" d="M2 -274q0 8 21 24q401 332 878 860q227 252 380 489.5t153 373.5q0 59 -68 59q-139 0 -315.5 -107.5t-315.5 -252t-236.5 -292t-97.5 -222t70 -74.5q100 0 267 101t325 267q10 10 18.5 10.5t8.5 -8t-67 -69t-160 -135t-204.5 -129t-197.5 -54.5q-104 0 -105 105 q0 96 89.5 244.5t226.5 291t329.5 244.5t372.5 102q100 0 101 -127q-23 -164 -123.5 -349t-236.5 -352t-328.5 -353.5t-366.5 -331.5t-385 -307q-20 -14 -29 -15l-4 2v5zM1214 1587q0 8 14.5 13.5t46.5 22.5t83 47t100 54q27 10 43 11q25 0 25 -29t-141.5 -76t-156 -47 t-14.5 4z" />
<glyph unicode="&#xce;" horiz-adv-x="880" d="M2 -274q0 8 21 24q401 332 878 860q227 252 380 489.5t153 373.5q0 59 -68 59q-139 0 -315.5 -107.5t-315.5 -252t-236.5 -292t-97.5 -222t70 -74.5q100 0 267 101t325 267q10 10 18.5 10.5t8.5 -8t-67 -69t-160 -135t-204.5 -129t-197.5 -54.5q-104 0 -105 105 q0 96 89.5 244.5t226.5 291t329.5 244.5t372.5 102q100 0 101 -127q-23 -164 -123.5 -349t-236.5 -352t-328.5 -353.5t-366.5 -331.5t-385 -307q-20 -14 -29 -15l-4 2v5zM1161 1602v2q0 6 34 22t99 53q168 100 185.5 100.5t21.5 -19t9.5 -50.5t7.5 -43q6 -29 32 -68l2 -4 q0 -6 -16 -6t-38.5 37t-35.5 78l-65 -29q-188 -84 -212 -84t-24 11z" />
<glyph unicode="&#xcf;" horiz-adv-x="880" d="M2 -274q0 8 21 24q401 332 878 860q227 252 380 489.5t153 373.5q0 59 -68 59q-139 0 -315.5 -107.5t-315.5 -252t-236.5 -292t-97.5 -222t70 -74.5q100 0 267 101t325 267q10 10 18.5 10.5t8.5 -8t-67 -69t-160 -135t-204.5 -129t-197.5 -54.5q-104 0 -105 105 q0 96 89.5 244.5t226.5 291t329.5 244.5t372.5 102q100 0 101 -127q-23 -164 -123.5 -349t-236.5 -352t-328.5 -353.5t-366.5 -331.5t-385 -307q-20 -14 -29 -15l-4 2v5zM1233 1651.5q0 31.5 30.5 60.5t52 29t33 -12.5t11.5 -29t-28.5 -48t-63.5 -31.5t-35 31.5z M1397 1651.5q0 31.5 30.5 60.5t52 29t33 -12.5t11.5 -29t-29 -48t-63.5 -31.5t-34.5 31.5z" />
<glyph unicode="&#xd0;" horiz-adv-x="1445" d="M-2 -163q0 140 67.5 360.5t118.5 220.5q15 -1 15 -19l-13 -86q0 -84 41 -159.5t113 -118.5l152 188q-121 51 -121 209t92 341t248.5 351t398.5 283t506 115q160 0 237.5 -72t77.5 -202t-78.5 -301t-222 -342t-319.5 -315.5t-395.5 -234.5t-426.5 -90q-72 0 -133 23 q-152 -168 -231 -250q-41 -41 -72 -41q-55 0 -55 140zM53 -124q0 -126 43 -126q6 0 219 254q-74 37 -123 98t-61 129l-8 25q-6 0 -23 -66q-47 -188 -47 -314zM379 14q68 -25 129 -24q201 0 450.5 142t450.5 341t339 422t138 377q0 225 -291 225q-178 0 -359 -79 t-320.5 -203.5t-251 -271t-171 -288t-59.5 -254t80 -151.5l299 377h-201q-18 0 -18 14q0 18 15.5 28.5t31.5 10.5q96 0 209 -6q373 477 411.5 532.5t57 55.5t18.5 -56.5t-397 -535.5l133 -6q63 0 63.5 -18.5t-73.5 -22.5q-2 0 -158 4q-168 -203 -334 -394h27q80 0 176 41 t176 99q158 111 258 215l41 41q18 20 30.5 20t12.5 -8q0 -12 -16 -29l-43 -43q-29 -29 -112 -98.5t-161.5 -122.5t-182 -97t-185.5 -44q-29 0 -41 2q-84 -88 -172 -195z" />
<glyph unicode="&#xd1;" horiz-adv-x="1036" d="M0 614q0 199 173 434.5t426 397.5t466 162q51 0 70.5 -22.5t19.5 -74.5q0 -119 -156 -376q-258 -424 -651 -877q-6 -6 -6 -13t4 -7t16 12q504 461 563.5 520t519.5 474t480.5 415t20.5 -23q0 -74 -233.5 -380t-515.5 -637.5t-515 -642t-233 -390.5q0 -8 9 -8t44 22.5 t39 22.5q16 0 16 -10q0 -4 -8 -10q-84 -55 -111 -56q-23 0 -22 27q0 109 152.5 352.5t369.5 517t435 532.5t370.5 441t152.5 201q0 2 -4 2t-131 -114.5t-313 -285.5t-368.5 -338t-328 -300t-403.5 -376t-260 -245q-20 -20 -48 -20t-28 9t45 68.5t257 321.5t376 470 t303.5 423t139.5 295q0 33 -15.5 46t-52.5 13q-127 0 -277.5 -80t-281.5 -199.5t-241.5 -253.5t-175 -255t-64.5 -189.5t62.5 -68.5t143 41t152.5 98q150 119 233 213l37 41q10 12 17.5 12t7.5 -9t-12.5 -22.5t-36 -40t-95 -94t-139 -120t-154.5 -95.5t-157 -43 q-84 0 -84 92zM1376 1684.5q0 7.5 8 15.5q45 45 84 45t86.5 -25.5t77 -25.5t66.5 43q2 4 10 4t8 -11.5t-2 -13.5q-53 -63 -119 -63q-32 0 -83.5 22.5t-72 22.5t-30.5 -10.5t-21.5 -10.5t-11.5 7.5z" />
<glyph unicode="&#xd2;" horiz-adv-x="903" d="M-35 133q0 127 65.5 303t192.5 363.5t291 347.5t386 263t452 103q66 0 65 -59q0 -113 -170 -289t-321 -178q-37 8 -37 23.5t25.5 46t37 30.5t11.5 -7t-8.5 -15t-8.5 -16q0 -4 8 -5q55 0 161 82t190 182.5t84 149.5q0 31 -37 31q-217 0 -428 -110.5t-366 -278.5 t-275.5 -361.5t-182 -365.5t-61.5 -289t76 -117q121 0 318.5 116t397 293t369.5 414.5t227 454.5q25 98 31 98q15 0 15 -16q-25 -190 -155 -429t-315.5 -449.5t-429 -356t-469.5 -145.5q-139 0 -139 186zM1225 1720q0 23 24.5 23t34.5 -10q180 -143 193.5 -150.5t13.5 -11.5 t-15.5 -4t-133 60t-117.5 93z" />
<glyph unicode="&#xd3;" horiz-adv-x="903" d="M-35 133q0 127 65.5 303t192.5 363.5t291 347.5t386 263t452 103q66 0 65 -59q0 -113 -170 -289t-321 -178q-37 8 -37 23.5t25.5 46t37 30.5t11.5 -7t-8.5 -15t-8.5 -16q0 -4 8 -5q55 0 161 82t190 182.5t84 149.5q0 31 -37 31q-217 0 -428 -110.5t-366 -278.5 t-275.5 -361.5t-182 -365.5t-61.5 -289t76 -117q121 0 318.5 116t397 293t369.5 414.5t227 454.5q25 98 31 98q15 0 15 -16q-25 -190 -155 -429t-315.5 -449.5t-429 -356t-469.5 -145.5q-139 0 -139 186zM1231 1575q0 8 14.5 13t46 22.5t82.5 47.5t101 54q27 10 43 10 q24 0 24 -28.5t-141 -75.5t-155.5 -47t-14.5 4z" />
<glyph unicode="&#xd4;" horiz-adv-x="903" d="M-35 133q0 127 65.5 303t192.5 363.5t291 347.5t386 263t452 103q66 0 65 -59q0 -113 -170 -289t-321 -178q-37 8 -37 23.5t25.5 46t37 30.5t11.5 -7t-8.5 -15t-8.5 -16q0 -4 8 -5q55 0 161 82t190 182.5t84 149.5q0 31 -37 31q-217 0 -428 -110.5t-366 -278.5 t-275.5 -361.5t-182 -365.5t-61.5 -289t76 -117q121 0 318.5 116t397 293t369.5 414.5t227 454.5q25 98 31 98q15 0 15 -16q-25 -190 -155 -429t-315.5 -449.5t-429 -356t-469.5 -145.5q-139 0 -139 186zM1108 1552v4q0 6 34 22.5t99 55.5q168 98 185.5 98.5t21.5 -19 t9 -50.5t7 -41q6 -31 33 -70l2 -4q0 -6 -16.5 -6t-39 37t-34.5 78l-66 -27q-197 -86 -216 -86t-19 8z" />
<glyph unicode="&#xd5;" horiz-adv-x="903" d="M-35 133q0 127 65.5 303t192.5 363.5t291 347.5t386 263t452 103q66 0 65 -59q0 -113 -170 -289t-321 -178q-37 8 -37 23.5t25.5 46t37 30.5t11.5 -7t-8.5 -15t-8.5 -16q0 -4 8 -5q55 0 161 82t190 182.5t84 149.5q0 31 -37 31q-217 0 -428 -110.5t-366 -278.5 t-275.5 -361.5t-182 -365.5t-61.5 -289t76 -117q121 0 318.5 116t397 293t369.5 414.5t227 454.5q25 98 31 98q15 0 15 -16q-25 -190 -155 -429t-315.5 -449.5t-429 -356t-469.5 -145.5q-139 0 -139 186zM1182 1613q0 7 8 15q45 45 83 45t87 -25.5t77.5 -25.5t65.5 43 q2 4 10.5 4t8.5 -11t-2 -13q-53 -63 -119 -64q-33 0 -84 22.5t-71.5 22.5t-31 -10t-21.5 -10t-11 7z" />
<glyph unicode="&#xd6;" horiz-adv-x="903" d="M-35 133q0 127 65.5 303t192.5 363.5t291 347.5t386 263t452 103q66 0 65 -59q0 -113 -170 -289t-321 -178q-37 8 -37 23.5t25.5 46t37 30.5t11.5 -7t-8.5 -15t-8.5 -16q0 -4 8 -5q55 0 161 82t190 182.5t84 149.5q0 31 -37 31q-217 0 -428 -110.5t-366 -278.5 t-275.5 -361.5t-182 -365.5t-61.5 -289t76 -117q121 0 318.5 116t397 293t369.5 414.5t227 454.5q25 98 31 98q15 0 15 -16q-25 -190 -155 -429t-315.5 -449.5t-429 -356t-469.5 -145.5q-139 0 -139 186zM1225 1629q0 32 30.5 60.5t52 28.5t33 -12t11.5 -28.5t-29 -48.5 t-63.5 -32t-34.5 32zM1389 1629q0 32 30.5 60.5t52 28.5t33 -12t11.5 -28.5t-29 -48.5t-63.5 -32t-34.5 32z" />
<glyph unicode="&#xd7;" horiz-adv-x="780" d="M184 354q0 8 4 17l256 153l-120 113q-18 16 -18.5 30.5t20.5 20.5q37 -47 149 -143l230 143q27 16 42 16.5t15 -18.5l-2 -14l-252 -154q147 -125 147 -141q0 -23 -24 -23l-158 144q-211 -129 -235.5 -144.5t-34.5 -15.5q-18 0 -19 16z" />
<glyph unicode="&#xd8;" horiz-adv-x="903" d="M-35 133q0 209 174 531q80 152 204 299t267.5 267t325.5 196.5t371 84.5l98 138q29 41 47 41t18 -52q0 -8 -86 -131q33 -12 33 -53q0 -94 -132 -247.5t-273 -202.5q-475 -635 -787 -1016q190 57 440 248.5t471.5 471t290.5 537.5q25 98 31 98q15 0 15 -16 q-25 -180 -144 -406.5t-290 -430t-397 -355t-443 -180.5q-92 -113 -140 -168q-23 -23 -37 -23t-14 33v8q35 35 123 144q-16 -2 -27 -2q-139 0 -139 186zM39 83q0 -116 76 -116q23 0 35 2q297 361 776 1018q-37 8 -37 23.5t25.5 46t37 30.5t11.5 -7t-8.5 -15t-8.5 -16 q0 -4 9.5 -4.5t13.5 2.5q272 375 319 440q-209 -16 -409.5 -133t-348 -283t-261 -353.5t-172 -353t-58.5 -281.5zM1090 1108q104 74 201.5 186.5t97.5 163.5q0 23 -21 29q-53 -74 -278 -379z" />
<glyph unicode="&#xd9;" horiz-adv-x="1419" d="M-4 561q0 -104 100 -104q82 0 225.5 98t245.5 197l103 98q8 8 8 13t-8 5t-22.5 -14t-41 -40t-102.5 -92.5t-144 -115.5q-180 -135 -272 -135q-39 0 -39 54.5t61.5 175t165 260t226.5 267.5t262 213t252 87q37 -2 56.5 -6t35.5 -20.5t16 -45.5q0 -102 -100 -269 t-243.5 -343t-286.5 -350q-344 -418 -344 -570q0 -33 30 -33q78 0 285 157t409.5 343.5t370.5 343t178 156.5q4 0 -55 -79t-151.5 -202t-183.5 -254t-156.5 -256t-65.5 -180t33 -59q86 0 239 90q125 76 250 160q166 113 239 156.5t73 47.5t-16.5 4t-31.5 -8l-137 -86 q-506 -340 -602 -340q-18 0 -18 27t41 99.5t108.5 164.5t129 171t131 163t77.5 95t180 226q453 557 453 578q0 8 -20.5 15.5t-43 7.5t-49.5 -39q-10 -10 -67 -78q-184 -217 -280.5 -312.5t-134.5 -132t-149.5 -141t-216 -200t-239.5 -212t-240 -200.5q-250 -199 -330 -199 q-10 0 -10 10q0 51 100.5 179.5t243 291t284.5 339.5t242.5 367.5t100.5 336.5q0 109 -132 108.5t-284.5 -76t-279.5 -194.5t-232.5 -253t-166 -259t-60.5 -207zM1393 1679q0 23 24.5 23t34.5 -10q180 -143 193.5 -150.5t13.5 -11.5t-15.5 -4t-133 60t-117.5 93z" />
<glyph unicode="&#xda;" horiz-adv-x="1419" d="M-4 561q0 82 60.5 207t166 259t232.5 253t279.5 194.5t284.5 75.5t132 -108q0 -145 -100.5 -336t-242.5 -368t-284.5 -339.5t-243 -290.5t-100.5 -180q0 -10 10 -10q86 0 395.5 253t573.5 505l266 252q170 170 291 312t131 153q27 39 49.5 39t43 -7.5t20.5 -15.5 q0 -20 -312.5 -406.5t-320.5 -397.5t-77.5 -95t-131 -163t-129.5 -171q-150 -205 -149 -270q0 -21 18 -21q96 0 602 340l137 86q14 8 31 8t17 -4t-7 -8l-147 -90q-31 -20 -123 -82.5t-149.5 -99.5t-135.5 -84q-154 -90 -239 -90q-33 4 -33 59t65.5 180t156.5 256t183.5 254 t151.5 202t55 79q-10 0 -178 -156.5t-370.5 -343t-409.5 -343.5t-285 -157q-31 0 -30 33q0 152 344 570q143 174 286.5 350t243.5 343t100 269q0 29 -16 45.5t-35.5 20.5t-56.5 6q-113 -2 -252 -87t-262 -213t-226.5 -267.5t-165 -260t-61.5 -175t39 -54.5q78 0 218 96.5 t243 192.5l100 96q12 12 20.5 12t8.5 -5t-12 -17l-39 -39q-27 -27 -105 -94.5t-146.5 -118.5t-148.5 -94t-131 -43q-100 0 -100 104zM1446 1491q0 8 14.5 13t46 22.5t82.5 47.5t101 54q27 10 43 10q24 0 24 -28.5t-141 -75.5t-155.5 -47t-14.5 4z" />
<glyph unicode="&#xdb;" horiz-adv-x="1419" d="M-4 561q0 82 60.5 207t166 259t232.5 253t279.5 194.5t284.5 75.5t132 -108q0 -145 -100.5 -336t-242.5 -368t-284.5 -339.5t-243 -290.5t-100.5 -180q0 -10 10 -10q86 0 395.5 253t573.5 505l266 252q170 170 291 312t131 153q27 39 49.5 39t43 -7.5t20.5 -15.5 q0 -20 -312.5 -406.5t-320.5 -397.5t-77.5 -95t-131 -163t-129.5 -171q-150 -205 -149 -270q0 -21 18 -21q96 0 602 340l137 86q14 8 31 8t17 -4t-7 -8l-147 -90q-31 -20 -123 -82.5t-149.5 -99.5t-135.5 -84q-154 -90 -239 -90q-33 4 -33 59t65.5 180t156.5 256t183.5 254 t151.5 202t55 79q-10 0 -178 -156.5t-370.5 -343t-409.5 -343.5t-285 -157q-31 0 -30 33q0 152 344 570q143 174 286.5 350t243.5 343t100 269q0 29 -16 45.5t-35.5 20.5t-56.5 6q-113 -2 -252 -87t-262 -213t-226.5 -267.5t-165 -260t-61.5 -175t39 -54.5q78 0 218 96.5 t243 192.5l100 96q12 12 20.5 12t8.5 -5t-12 -17l-39 -39q-27 -27 -105 -94.5t-146.5 -118.5t-148.5 -94t-131 -43q-100 0 -100 104zM1372 1507v2q0 6 34 22.5t97 53.5q170 100 187.5 100.5t21.5 -19t9 -50.5t8 -43q6 -29 32 -68l2 -4q0 -6 -16 -6t-38.5 37t-35.5 78 l-63 -29q-190 -84 -214 -84t-24 10z" />
<glyph unicode="&#xdc;" horiz-adv-x="1419" d="M-4 561q0 -104 100 -104q82 0 225.5 98t245.5 197l103 98q8 8 8 13t-8 5t-22.5 -14t-41 -40t-102.5 -92.5t-144 -115.5q-180 -135 -272 -135q-39 0 -39 54.5t61.5 175t165 260t226.5 267.5t262 213t252 87q37 -2 56.5 -6t35.5 -20.5t16 -45.5q0 -102 -100 -269 t-243.5 -343t-286.5 -350q-344 -418 -344 -570q0 -33 30 -33q78 0 285 157t409.5 343.5t370.5 343t178 156.5q4 0 -55 -79t-151.5 -202t-183.5 -254t-156.5 -256t-65.5 -180t33 -59q86 0 239 90q125 76 250 160q166 113 239 156.5t73 47.5t-16.5 4t-31.5 -8l-137 -86 q-506 -340 -602 -340q-18 0 -18 27t41 99.5t108.5 164.5t129 171t131 163t77.5 95t180 226q453 557 453 578q0 8 -20.5 15.5t-43 7.5t-49.5 -39q-10 -10 -67 -78q-184 -217 -280.5 -312.5t-134.5 -132t-149.5 -141t-216 -200t-239.5 -212t-240 -200.5q-250 -199 -330 -199 q-10 0 -10 10q0 51 100.5 179.5t243 291t284.5 339.5t242.5 367.5t100.5 336.5q0 109 -132 108.5t-284.5 -76t-279.5 -194.5t-232.5 -253t-166 -259t-60.5 -207zM1432 1594.5q0 31.5 30.5 60t52 28.5t33 -12t11.5 -28.5t-29 -48t-63.5 -31.5t-34.5 31.5zM1595 1594.5 q0 31.5 31 60t52.5 28.5t32.5 -12t11 -28.5t-28.5 -48t-63.5 -31.5t-35 31.5z" />
<glyph unicode="&#xdd;" horiz-adv-x="1259" d="M-309 -981q0 104 94 242.5t256 283.5q295 266 715 547q385 485 663 873q-539 -365 -710 -365q-53 0 -54 53q0 94 131 310l45 71q0 4 -6 4l-55 -34q-37 -20 -143.5 -73.5t-208 -93.5t-234.5 -74t-239 -34q-37 0 -37 23q0 35 59.5 61.5t80 26t20.5 -10.5l-13 -18 q0 -8 15 -8q109 0 233.5 32.5t224.5 77.5q209 96 316 172l45 33l24 25q25 27 60 63.5t80 82.5t86 87q70 74 137 132.5t102 58.5q12 0 23.5 -8.5t11.5 -23.5t-79 -96t-188.5 -186.5t-177 -181.5t-169 -217t-101.5 -209q0 -14 21 -14q205 0 772 434q172 229 237.5 301 t117.5 117t80 59t42 14t24.5 -10t10.5 -18t-14 -29q-47 -74 -158 -164q-16 -16 -206.5 -256.5t-229.5 -290.5q-164 -223 -439 -565q465 295 498 295q10 0 10 -10t-16 -21q-199 -100 -537 -321q-250 -307 -466 -552t-427 -438.5t-297 -193.5q-10 0 -20 13.5t-10 23.5z M-229 -948q0 -6 4 -6q143 2 925 977q-397 -276 -663 -536.5t-266 -434.5zM1593 1610q0 8 14.5 13t46.5 22.5t83 47t100 54.5q27 10 43 10q25 0 25 -28.5t-141.5 -75.5t-156 -47t-14.5 4z" />
<glyph unicode="&#xde;" horiz-adv-x="876" d="M0 0q0 213 273.5 537.5t629.5 562.5q233 350 271 446q6 14 12 15q23 0 22.5 -55.5t-10.5 -71.5q-12 -33 -60 -115t-79 -125q295 166 508 166q172 0 172 -123q0 -96 -106.5 -246.5t-256 -288t-326 -235.5t-302.5 -98q-70 0 -70 82q0 78 41 167l14 33q8 20 17.5 20.5 t8.5 -15t-9 -46.5q-16 -72 -17 -118q0 -86 66 -86q106 0 318 162.5t383 368.5t171 314q0 84 -112 84q-219 0 -525 -178q-233 -336 -588.5 -768t-412.5 -432q-33 0 -33 43zM25 0q0 -16 14 -16q57 0 314 337.5t521 735.5q-340 -233 -594.5 -543.5t-254.5 -513.5z" />
<glyph unicode="&#xdf;" horiz-adv-x="614" d="M-539 -631q0 76 387.5 590t819.5 1002.5t532 488.5q18 0 19 -16q0 -174 -267 -435q-111 -106 -220 -223t-187 -269.5t-78 -313.5q0 -68 -25 -93q0 -4 6.5 -4t8.5 2l229 146l2 -27q-25 -14 -82 -51t-80.5 -51.5t-68.5 -42t-70 -40l-57 -28.5q-55 -25 -109.5 -24.5 t-89.5 33t-35 75.5t30 74t71 31t41 -33q0 -18 -13.5 -34.5t-33 -16.5t-22.5 18t-11 18q-14 0 -23.5 -14t-9.5 -41t24.5 -52.5t69.5 -25.5t85 33t58.5 65.5t22.5 114.5q8 135 92 276.5t196.5 257t225.5 224.5q268 262 268 416q0 4 -6 4q-49 0 -461.5 -481.5t-804 -984 t-391.5 -558.5q0 -6 7.5 -7t7.5 -3q0 -29 -21 -28q-12 0 -24.5 9t-12.5 19z" />
<glyph unicode="&#xe0;" horiz-adv-x="604" d="M-8 66q0 170 193.5 331.5t465.5 161.5q25 0 25 -20.5t-192.5 -238.5t-192.5 -263q0 -8 12 -8t104.5 53t174.5 106l84 56l2 -27q-330 -219 -402 -219q-12 0 -12 14q0 43 33 123l10 29q0 4 -7 4t-120 -82q-111 -82 -144.5 -82t-33.5 62zM41 61q0 -12 12.5 -12t40 15.5 t67.5 43t68 48.5q99 74 111 86q35 27 135 141.5t100 132.5q0 8 -16 8q-94 0 -219 -87t-212 -197.5t-87 -178.5zM426 764q0 23 24.5 22.5t34.5 -10.5q180 -143 193.5 -150.5t13.5 -11.5t-15 -4t-133 60.5t-118 93.5z" />
<glyph unicode="&#xe1;" horiz-adv-x="604" d="M-8 66q0 170 193.5 331.5t465.5 161.5q25 0 25 -20.5t-192.5 -238.5t-192.5 -263q0 -8 12 -8t104.5 53t174.5 106l84 56l2 -27q-330 -219 -402 -219q-12 0 -12 14q0 43 33 123l10 29q0 4 -7 4t-120 -82q-111 -82 -144.5 -82t-33.5 62zM41 61q0 -12 12.5 -12t40 15.5 t67.5 43t68 48.5q99 74 111 86q35 27 135 141.5t100 132.5q0 8 -16 8q-94 0 -219 -87t-212 -197.5t-87 -178.5zM483 623q0 8 14.5 13t46 22.5t83 47t100.5 54.5q27 10 43 10q25 0 25 -28.5t-141.5 -76t-156 -47.5t-14.5 5z" />
<glyph unicode="&#xe2;" horiz-adv-x="604" d="M-8 66q0 170 193.5 331.5t465.5 161.5q25 0 25 -20.5t-192.5 -238.5t-192.5 -263q0 -8 12 -8t104.5 53t174.5 106l84 56l2 -27q-330 -219 -402 -219q-12 0 -12 14q0 43 33 123l10 29q0 4 -7 4t-120 -82q-111 -82 -144.5 -82t-33.5 62zM41 61q0 -12 12.5 -12t40 15.5 t67.5 43t68 48.5q99 74 111 86q35 27 135 141.5t100 132.5q0 8 -16 8q-94 0 -219 -87t-212 -197.5t-87 -178.5zM383 618v5q0 6 34 22.5t99 54.5q168 98 185.5 98.5t21.5 -19t9 -50.5t7 -41q6 -31 33 -70l2 -4q0 -6 -16.5 -6t-39 37t-34.5 78l-66 -27q-197 -86 -216 -86 t-19 8z" />
<glyph unicode="&#xe3;" horiz-adv-x="604" d="M-8 66q0 170 193.5 331.5t465.5 161.5q25 0 25 -20.5t-192.5 -238.5t-192.5 -263q0 -8 12 -8t104.5 53t174.5 106l84 56l2 -27q-330 -219 -402 -219q-12 0 -12 14q0 43 33 123l10 29q0 4 -7 4t-120 -82q-111 -82 -144.5 -82t-33.5 62zM41 61q0 -12 12.5 -12t40 15.5 t67.5 43t68 48.5q99 74 111 86q35 27 135 141.5t100 132.5q0 8 -16 8q-94 0 -219 -87t-212 -197.5t-87 -178.5zM440 681q0 7 9 15q45 45 82.5 45t87 -25.5t78 -25.5t65.5 43q2 4 10 4t8 -11t-2 -13q-53 -63 -119 -64q-32 0 -83.5 22.5t-72 22.5t-30.5 -10t-21.5 -10t-11.5 7 z" />
<glyph unicode="&#xe4;" horiz-adv-x="604" d="M-8 66q0 170 193.5 331.5t465.5 161.5q25 0 25 -20.5t-192.5 -238.5t-192.5 -263q0 -8 12 -8t104.5 53t174.5 106l84 56l2 -27q-330 -219 -402 -219q-12 0 -12 14q0 43 33 123l10 29q0 4 -7 4t-120 -82q-111 -82 -144.5 -82t-33.5 62zM41 61q0 -12 12.5 -12t40 15.5 t67.5 43t68 48.5q99 74 111 86q35 27 135 141.5t100 132.5q0 8 -16 8q-94 0 -219 -87t-212 -197.5t-87 -178.5zM473 660.5q0 31.5 31 60.5t52.5 29t32.5 -12.5t11 -29t-28.5 -48t-63.5 -31.5t-35 31.5zM637 660.5q0 31.5 30.5 60.5t52 29t33 -12.5t11.5 -29t-28.5 -48 t-63.5 -31.5t-35 31.5z" />
<glyph unicode="&#xe5;" horiz-adv-x="604" d="M-8 66q0 170 193.5 331.5t465.5 161.5q25 0 25 -20.5t-192.5 -238.5t-192.5 -263q0 -8 12 -8t104.5 53t174.5 106l84 56l2 -27q-330 -219 -402 -219q-12 0 -12 14q0 43 33 123l10 29q0 4 -7 4t-120 -82q-111 -82 -144.5 -82t-33.5 62zM41 61q0 -12 12.5 -12t40 15.5 t67.5 43t68 48.5q99 74 111 86q35 27 135 141.5t100 132.5q0 8 -16 8q-94 0 -219 -87t-212 -197.5t-87 -178.5zM530 655q0 49 53.5 99.5t91.5 50.5t55.5 -19.5t17.5 -50t-49 -85t-119 -54.5q-23 0 -36.5 18.5t-13.5 40.5zM573.5 650q0.5 -32 18.5 -32q43 0 78 44.5t35 83 t-33 38.5t-66 -51t-32.5 -83z" />
<glyph unicode="&#xe6;" horiz-adv-x="765" d="M0 66q0 170 193.5 331.5t465.5 161.5q25 0 25 -22q0 -14 -41 -62q147 82 206.5 82t59.5 -31q0 -76 -179 -184.5t-298 -142.5q-70 -100 -70 -156q0 -27 21 -27q25 0 111 34t141 67l201 127l2 -27q-215 -143 -320.5 -182t-140.5 -39q-57 0 -57.5 71.5t34.5 137.5 q-22 -11 -157 -107q-131 -94 -164 -94q-33 2 -33 62zM49 61q0 -12 12.5 -12t40 15.5t67.5 43t69 48.5q98 74 110 86q35 27 135.5 141.5t100.5 132.5q0 8 -17 8q-94 0 -219 -87t-212 -197.5t-87 -178.5zM453 225q102 33 242.5 147.5t140.5 153.5q0 6 -9 6q-55 0 -171.5 -96 t-202.5 -211z" />
<glyph unicode="&#xe7;" horiz-adv-x="415" d="M-123 -196.5q0 6.5 8.5 6.5t22.5 -13.5t57 -13.5t84 30.5t41 65.5q0 53 -90 55l35 62q-35 4 -35 88t84 197.5t211 197.5t231 84q41 0 41 -33q0 -45 -70.5 -118.5t-101 -73.5t-30.5 22q0 15 10 33.5t20.5 18.5t18.5 -15q115 90 114 133q0 6 -10 7q-66 0 -180.5 -92.5 t-203.5 -212t-89 -189.5q0 -18 18 -18q76 0 299 139l123 80l2 -27q-51 -33 -116 -74q-213 -135 -308 -145l-28 -47q104 -2 104 -53q0 -43 -62.5 -86t-114.5 -43t-81 24q-4 4 -4 10.5z" />
<glyph unicode="&#xe8;" horiz-adv-x="446" d="M0 68q0 96 69.5 192t163 157.5t180.5 100.5t132 39t45 -31q0 -76 -179.5 -184.5t-297.5 -142.5q-70 -101 -70 -156q0 -27 20 -27q25 0 111 34t141 67l201 127l2 -27q-215 -143 -320.5 -182t-140.5 -39q-57 0 -57 72zM133 225q102 33 242.5 147.5t140.5 153.5q0 6 -8 6 q-55 0 -172 -96t-203 -211zM358 764q0 23 25 22.5t35 -10.5q180 -143 193.5 -150.5t13.5 -11.5t-15.5 -4t-133.5 60.5t-118 93.5z" />
<glyph unicode="&#xe9;" horiz-adv-x="446" d="M0 68q0 96 69.5 192t163 157.5t180.5 100.5t132 39t45 -31q0 -76 -179.5 -184.5t-297.5 -142.5q-70 -101 -70 -156q0 -27 20 -27q25 0 111 34t141 67l201 127l2 -27q-215 -143 -320.5 -182t-140.5 -39q-57 0 -57 72zM133 225q102 33 242.5 147.5t140.5 153.5q0 6 -8 6 q-55 0 -172 -96t-203 -211zM432 627q0 8 14.5 13t46 22.5t83 47t100.5 54.5q27 10 43 10q24 0 24 -28.5t-141 -75.5t-155.5 -47t-14.5 4z" />
<glyph unicode="&#xea;" horiz-adv-x="446" d="M0 68q0 96 69.5 192t163 157.5t180.5 100.5t132 39t45 -31q0 -76 -179.5 -184.5t-297.5 -142.5q-70 -101 -70 -156q0 -27 20 -27q25 0 111 34t141 67l201 127l2 -27q-215 -143 -320.5 -182t-140.5 -39q-57 0 -57 72zM133 225q102 33 242.5 147.5t140.5 153.5q0 6 -8 6 q-55 0 -172 -96t-203 -211zM297 606v2q0 6 34 22.5t99 53.5q168 100 185.5 100t21.5 -19.5t9 -50t7 -42.5q6 -29 33 -68l2 -4q0 -6 -16.5 -6t-39 37t-34.5 78l-66 -29q-188 -84 -211.5 -84t-23.5 10z" />
<glyph unicode="&#xeb;" horiz-adv-x="446" d="M0 68q0 96 69.5 192t163 157.5t180.5 100.5t132 39t45 -31q0 -76 -179.5 -184.5t-297.5 -142.5q-70 -101 -70 -156q0 -27 20 -27q25 0 111 34t141 67l201 127l2 -27q-215 -143 -320.5 -182t-140.5 -39q-57 0 -57 72zM133 225q102 33 242.5 147.5t140.5 153.5q0 6 -8 6 q-55 0 -172 -96t-203 -211zM414 654.5q0 31.5 30.5 60t52 28.5t33 -12t11.5 -28.5t-29 -48t-63.5 -31.5t-34.5 31.5zM578 654.5q0 31.5 30.5 60t52 28.5t33 -12t11.5 -28.5t-29 -48t-63.5 -31.5t-34.5 31.5z" />
<glyph unicode="&#xec;" horiz-adv-x="303" d="M-53 38q0 -40 24 -40q33 0 133.5 54t184.5 110l84 55l-2 27q-330 -217 -367 -217q-10 0 -10 8q23 51 181.5 233.5t240.5 263.5q12 16 12 23.5t-16 9.5l-47 4q-16 0 -31 -16q-139 -141 -263 -308t-124 -207zM231 768q0 23 25 23t35 -11q180 -143 193.5 -150t13.5 -11.5 t-15.5 -4.5t-133.5 60.5t-118 93.5z" />
<glyph unicode="&#xed;" horiz-adv-x="303" d="M-53.5 38q0.5 40 124.5 207t263 308q12 16 26 16h5q20 -2 41.5 -4t21.5 -9.5t-12 -23.5q-82 -82 -252 -276.5t-170 -220.5q0 -8 14 -8q27 0 279 161l84 56l2 -27q-330 -219 -402 -219q-25 0 -24.5 40zM336 639q0 8 14.5 13t46 22.5t82.5 47.5t101 54q27 10 43 10 q24 0 24 -28.5t-141 -75.5t-155.5 -47t-14.5 4z" />
<glyph unicode="&#xee;" horiz-adv-x="303" d="M-53.5 38q0.5 40 124.5 207t263 308q12 16 26 16h5q20 -2 41.5 -4t21.5 -9.5t-12 -23.5q-82 -82 -252 -276.5t-170 -220.5q0 -8 14 -8q27 0 279 161l84 56l2 -27q-330 -219 -402 -219q-25 0 -24.5 40zM188 627v2q0 6 34 22.5t97 53.5q170 100 187.5 100t21.5 -19.5 t9.5 -50t7.5 -43.5q6 -29 33 -67l2 -4q0 -6 -16.5 -6.5t-39 36.5t-35.5 78l-63 -29q-190 -84 -214 -84t-24 11z" />
<glyph unicode="&#xef;" horiz-adv-x="303" d="M-53 38q0 -40 24 -40q33 0 133.5 54t184.5 110l84 55l-2 27q-330 -217 -367 -217q-10 0 -10 8q23 51 181.5 233.5t240.5 263.5q12 16 12 23.5t-16 9.5l-47 4q-16 0 -31 -16q-139 -141 -263 -308t-124 -207zM305 675q0 32 31 60.5t52.5 28.5t32.5 -12.5t11 -28.5 t-28.5 -48t-63.5 -32t-35 32zM469 675q0 32 30.5 60.5t52 28.5t33 -12.5t11.5 -28.5t-28.5 -48t-63.5 -32t-35 32z" />
<glyph unicode="&#xf0;" horiz-adv-x="690" d="M0 45q0 106 77 204.5t185.5 161t217 99.5t182.5 37q100 109 227 256h-127q-14 0 -14 16.5t12 26.5t24 10q121 -4 148 -4q244 281 373 446q47 61 106 64q18 0 19 -16q0 -12 -68 -90t-109 -126l-118 -137q-80 -92 -127 -145l122 -8q51 0 51.5 -18.5t-59.5 -22.5 q-2 0 -155 4q-627 -717 -627 -783q0 -8 10 -8t82 35t129 70l201 127l2 -27q-340 -229 -432 -229q-25 0 -25 27.5t13.5 56t39.5 71.5q35 55 46 84l-3 2q-309 -225 -380 -225q-23 0 -23 41zM41 45q0 -10 8 -10q55 0 272.5 160.5t311.5 308.5q0 14 -25 14q-57 0 -194.5 -86 t-255 -201.5t-117.5 -185.5z" />
<glyph unicode="&#xf1;" horiz-adv-x="671" d="M-68 4q0 2 35 39l66 70q109 121 149 172l-137 -84l-6 24l67 43q154 102 193 144.5t47 52.5q53 68 60 76q25 -8 24 -49q-41 -59 -110.5 -142.5t-114.5 -137.5t-45 -62.5t3 -8.5t30.5 21.5t150.5 107.5q248 172 315.5 218.5t87 46.5t19.5 -40t-61.5 -120t-135.5 -148 q-197 -180 -196 -198q0 -2 8 -2q25 0 276 161l84 56l2 -27q-330 -219 -401 -219q-12 0 -12 12q0 76 95 179.5t189.5 186.5t94.5 109q0 4 -4 4q-59 -29 -275.5 -181t-253.5 -179q-96 -72 -101 -75t-22 -21q-37 -39 -67 -39q-49 4 -52 6q-2 2 -2 4zM469 636q0 7 8 15 q45 45 83 45t87 -25.5t78 -25.5t66 43q2 4 10 4t8 -11t-2 -13q-53 -63 -119 -64q-33 0 -84 22.5t-71.5 22.5t-30.5 -10t-21.5 -10t-11.5 7z" />
<glyph unicode="&#xf2;" horiz-adv-x="475" d="M-12 61q0 -61 40 -61t128 41t168 106q12 -10 38 -10q68 0 199 88l-10 21q-109 -72 -166 -72q-12 0 -25 4q156 145 156 291q0 51 -57 51q-117 0 -294 -152.5t-177 -306.5zM37 45q0 96 175 270t251 174q10 0 16 -6q-51 -27 -113.5 -120t-62.5 -156v-10q-174 -164 -252 -164 q-14 0 -14 12zM328 719q0 23 24.5 22.5t34.5 -10.5q180 -143 193.5 -150.5t13.5 -11.5t-15.5 -4t-133 60.5t-117.5 93.5zM340 233q8 55 57 132.5t90 97.5v-2q0 -76 -147 -228z" />
<glyph unicode="&#xf3;" horiz-adv-x="475" d="M-12 61q0 154 177 306.5t294 152.5q57 0 57 -51q0 -145 -156 -291q12 -4 25 -4q57 0 166 72l10 -21q-131 -88 -199 -88q-27 0 -38 10q-80 -66 -168 -106.5t-128 -40.5t-40 61zM37 45q0 -12 14 -12q78 0 252 164v10q0 63 62.5 156.5t113.5 119.5q-6 6 -16 6 q-76 0 -251 -174t-175 -270zM340 233q147 152 147 228v2q-41 -20 -90 -97t-57 -133zM442 590q0 8 14.5 13t46.5 22.5t83 47t100 54.5q27 10 43 10q25 0 25 -28.5t-141.5 -75.5t-156 -47t-14.5 4z" />
<glyph unicode="&#xf4;" horiz-adv-x="475" d="M-12 61q0 154 177 306.5t294 152.5q57 0 57 -51q0 -145 -156 -291q12 -4 25 -4q57 0 166 72l10 -21q-131 -88 -199 -88q-27 0 -38 10q-80 -66 -168 -106.5t-128 -40.5t-40 61zM37 45q0 -12 14 -12q78 0 252 164v10q0 63 62.5 156.5t113.5 119.5q-6 6 -16 6 q-76 0 -251 -174t-175 -270zM260 578v2q0 6 34 22t99 53q168 100 185.5 100.5t21.5 -19t9 -50.5t7 -43q6 -29 33 -68l2 -4q0 -6 -16.5 -6t-39 37t-34.5 78l-65 -29q-188 -84 -212 -84t-24 11zM340 233q147 152 147 228v2q-41 -20 -90 -97t-57 -133z" />
<glyph unicode="&#xf5;" horiz-adv-x="475" d="M-12 61q0 154 177 306.5t294 152.5q57 0 57 -51q0 -145 -156 -291q12 -4 25 -4q57 0 166 72l10 -21q-131 -88 -199 -88q-27 0 -38 10q-80 -66 -168 -106.5t-128 -40.5t-40 61zM37 45q0 -12 14 -12q78 0 252 164v10q0 63 62.5 156.5t113.5 119.5q-6 6 -16 6 q-76 0 -251 -174t-175 -270zM313 632q0 7 9 15q45 45 82.5 45t87 -25.5t78 -25.5t65.5 43q2 4 10 4t8 -11t-2 -13q-53 -63 -119 -64q-32 0 -83.5 22.5t-72 22.5t-30.5 -10t-21.5 -10t-11.5 7zM340 233q147 152 147 228v2q-41 -20 -90 -97t-57 -133z" />
<glyph unicode="&#xf6;" horiz-adv-x="475" d="M-12 61q0 -61 40 -61t128 41t168 106q12 -10 38 -10q68 0 199 88l-10 21q-109 -72 -166 -72q-12 0 -25 4q156 145 156 291q0 51 -57 51q-117 0 -294 -152.5t-177 -306.5zM37 45q0 96 175 270t251 174q10 0 16 -6q-51 -27 -113.5 -120t-62.5 -156v-10q-174 -164 -252 -164 q-14 0 -14 12zM340 233q8 55 57 132.5t90 97.5v-2q0 -76 -147 -228zM383 619.5q0 31.5 30.5 60.5t52 29t33 -12.5t11.5 -29t-28.5 -48t-63.5 -31.5t-35 31.5zM547 619.5q0 31.5 30.5 60.5t52 29t33 -12.5t11.5 -29t-29 -48t-63.5 -31.5t-34.5 31.5z" />
<glyph unicode="&#xf7;" horiz-adv-x="819" d="M221 492q0 16 27 20h10l59 2q162 6 254 12l191 13q16 0 20 -13q0 -18 -14 -29.5t-70.5 -14.5t-228.5 -3l-221 2q-25 0 -27 11zM332 264q0 31 29.5 58.5t51 27.5t32 -12t10.5 -27.5t-28 -46.5t-61.5 -31t-33.5 31zM508 665.5q0 30.5 29.5 58.5t51 28t32 -12.5t10.5 -28 t-28 -46t-61.5 -30.5t-33.5 30.5z" />
<glyph unicode="&#xf8;" horiz-adv-x="475" d="M-49 -96q29 45 76 96q-39 0 -39 61q0 139 150.5 280.5t279.5 172.5q68 98 87 132t33.5 34t14.5 -33q0 -10 -84 -127q47 -6 47 -51q0 -145 -156 -291q12 -4 25 -4q57 0 166 72l10 -21q-131 -88 -199 -88q-27 0 -38 10q-119 -96 -250 -139l-90 -106q-14 -14 -23.5 -14.5 t-9.5 16.5zM37 45q0 -12 14 -12h2q166 197 322 420q-111 -72 -224.5 -202t-113.5 -206zM109 49q72 37 194 148v10q0 63 62.5 156.5t113.5 119.5q-6 6 -14.5 6t-20.5 -4q-184 -250 -335 -436zM340 233q147 152 147 228v2q-41 -20 -90 -97t-57 -133z" />
<glyph unicode="&#xf9;" horiz-adv-x="712" d="M41 225l70 43q178 115 229 174q18 23 43 58t41 35t35 -31q0 -37 -185.5 -242t-185.5 -223q0 -4 12.5 -4t143.5 84q274 176 473 387q49 45 86 45h4q39 -2 39 -10l-2 -4q-88 -82 -262 -276.5t-174 -229.5q0 -8 13 -8t279 167l84 54l2 -25q-25 -16 -63 -41 q-305 -193 -356 -192q-18 0 -18.5 20.5t50 116.5t72.5 123l-33 -19q-309 -221 -370 -221q-25 0 -25 27.5t22.5 72t42 71t58.5 72.5t41 48l-160 -94zM455 768q0 23 24.5 23t34.5 -11q180 -143 193.5 -150t13.5 -11.5t-15.5 -4.5t-133 60.5t-117.5 93.5z" />
<glyph unicode="&#xfa;" horiz-adv-x="712" d="M41 225l70 43q178 115 229 174q18 23 43 58t41 35t35 -31q0 -37 -185.5 -242t-185.5 -223q0 -4 12.5 -4t143.5 84q274 176 473 387q49 45 86 45h4q39 -2 39 -10l-2 -4q-88 -82 -262 -276.5t-174 -229.5q0 -8 13 -8t279 167l84 54l2 -25q-25 -16 -63 -41 q-305 -193 -356 -192q-18 0 -18.5 20.5t50 116.5t72.5 123l-33 -19q-309 -221 -370 -221q-25 0 -25 27.5t22.5 72t42 71t58.5 72.5t41 48l-160 -94zM586 612q0 8 14 13.5t46 23t83 47t100 54.5q27 10 43 10q25 0 25 -29t-141.5 -76t-155.5 -47t-14 4z" />
<glyph unicode="&#xfb;" horiz-adv-x="712" d="M41 225l70 43q178 115 229 174q18 23 43 58t41 35t35 -31q0 -37 -185.5 -242t-185.5 -223q0 -4 12.5 -4t143.5 84q274 176 473 387q49 45 86 45h4q39 -2 39 -10l-2 -4q-88 -82 -262 -276.5t-174 -229.5q0 -8 13 -8t279 167l84 54l2 -25q-25 -16 -63 -41 q-305 -193 -356 -192q-18 0 -18.5 20.5t50 116.5t72.5 123l-33 -19q-309 -221 -370 -221q-25 0 -25 27.5t22.5 72t42 71t58.5 72.5t41 48l-160 -94zM440 627v2q0 6 34 22.5t99 53.5q168 100 185.5 100t21.5 -19.5t9.5 -50t7.5 -43.5q6 -29 32 -67l2 -4q0 -6 -16 -6.5 t-38.5 36.5t-35.5 78l-65 -29q-188 -84 -212 -84t-24 11z" />
<glyph unicode="&#xfc;" horiz-adv-x="712" d="M41 225l70 43q178 115 229 174q18 23 43 58t41 35t35 -31q0 -37 -185.5 -242t-185.5 -223q0 -4 12.5 -4t143.5 84q274 176 473 387q49 45 86 45h4q39 -2 39 -10l-2 -4q-88 -82 -262 -276.5t-174 -229.5q0 -8 13 -8t279 167l84 54l2 -25q-25 -16 -63 -41 q-305 -193 -356 -192q-18 0 -18.5 20.5t50 116.5t72.5 123l-33 -19q-309 -221 -370 -221q-25 0 -25 27.5t22.5 72t42 71t58.5 72.5t41 48l-160 -94zM526 658.5q0 31.5 31 60.5t52.5 29t32.5 -12.5t11 -29t-28.5 -48t-63.5 -31.5t-35 31.5zM690 658.5q0 31.5 31 60.5t52.5 29 t32.5 -12.5t11 -29t-28.5 -48t-63.5 -31.5t-35 31.5z" />
<glyph unicode="&#xfd;" horiz-adv-x="702" d="M-391 -723q0 100 92 211q106 125 193.5 196.5t130.5 106.5q154 119 211 160q84 102 124 147q86 100 148 174l-25 -16q-29 -18 -45 -29q-309 -221 -370 -221q-25 0 -25 27.5t24.5 74t47 77t63.5 78.5t43 50l-174 -110l-6 22l78 54q145 100 189 138t85 97q14 20 30.5 20.5 t35.5 -30.5q0 -37 -185.5 -242t-185.5 -223q0 -4 12.5 -4t143.5 84t200 139q111 90 203 201l37 47q49 45 86 45h4q39 -2 39 -10l-2 -4q-68 -78 -229.5 -274.5t-184.5 -235.5q16 0 110.5 53t180.5 108l84 54l2 -25q-131 -90 -246 -151l-186 -97q-162 -219 -404.5 -470 t-285.5 -251t-43 29zM-338 -692q0 -13 6 -13q12 0 138 143.5t247 287.5l119 145q0 4 -4 4q-506 -369 -506 -567zM543 590q0 8 14 13t46 22.5t83 47t100 54.5q27 10 43 10q25 0 25 -28.5t-141.5 -75.5t-155.5 -47t-14 4z" />
<glyph unicode="&#xfe;" d="M-619 -559q0 12 23 41l1489 1728q10 12 43 12.5t33 -16.5q0 -6 -11 -16l-813 -942q-10 -12 -10 -16.5t3 -4.5t40 32t234.5 160t253.5 128q23 0 22 -29q0 -55 -59.5 -138t-132.5 -151q-190 -178 -190.5 -189t7.5 -11q115 37 201 88l201 127l2 -27q-215 -143 -320.5 -182 t-135.5 -39t-30 18q0 37 103.5 147.5t208 216t104.5 126.5q0 4 -6 4q-45 0 -203.5 -101.5t-211 -143.5t-95.5 -80t-70.5 -64.5t-53 -50t-42 -40t-231.5 -265t-248 -291.5q-33 -45 -68 -45q-37 2 -37 14z" />
<glyph unicode="&#xff;" horiz-adv-x="702" d="M-391 -723q0 -29 43 -29t285.5 251t404.5 470l186 97q102 53 209 127l37 24l-2 25q-338 -215 -375 -215q23 39 184.5 235.5t196.5 236.5t35 45t-39 7h-4q-37 0 -86 -45l-37 -47q-94 -111 -183 -183.5t-220 -156.5t-143.5 -84t-12.5 4q0 18 185.5 223t185.5 242 q-16 31 -33.5 31t-32.5 -21q-41 -59 -85 -97t-189 -138l-78 -54l6 -22l174 110q-2 -2 -43 -50t-63 -79q-72 -98 -72 -153q0 -25 25 -25q61 0 370 221q16 10 45 29l25 16q-33 -39 -96.5 -112.5t-175.5 -208.5q-111 -78 -255.5 -195.5t-188.5 -165t-91 -102.5 q-92 -111 -92 -211zM-338 -692q0 199 506 567q4 0 4 -4q-475 -576 -504 -576q-6 0 -6 13zM504 642q0 32 30.5 60.5t52 28.5t33 -12t11.5 -28.5t-29 -48.5t-63.5 -32t-34.5 32zM668 642q0 32 30.5 60.5t52 28.5t33 -12t11.5 -28.5t-29 -48.5t-63.5 -32t-34.5 32z" />
<glyph unicode="&#x152;" horiz-adv-x="1372" d="M-35 133q0 127 65.5 303t192.5 363.5t291 347.5t386 263t452 103q66 0 65 -59q0 -51 -49 -133q348 258 694 258q90 0 90 -51q0 -88 -205.5 -248t-310.5 -160q-29 0 -28.5 32t43.5 67.5t54 35.5t11 -9t-19.5 -21.5t-19.5 -21.5t9 -9q57 0 243.5 145.5t186.5 200.5 q0 20 -31 21q-170 0 -363.5 -95.5t-339 -223.5t-242 -259t-96.5 -205q0 -63 74 -63q168 0 377 137q29 18 60.5 39.5t39 27t13.5 5.5t6 -17v-6q0 -14 -160 -110l-51 -33q-213 -127 -423 -374t-210 -372q0 -72 84 -71q131 0 555 284l137 86q14 8 30.5 8t16.5 -4t-6 -8 l-147 -90q-18 -12 -114.5 -76.5t-137.5 -90t-115 -66.5q-182 -78 -217 -78h-4q-137 0 -137 137q0 76 45 178q-115 -94 -300.5 -187t-316.5 -93q-178 0 -178 192zM39 88q0 -119 102 -119q133 0 386 175t408 333t312 234q-74 -18 -125 -19q-145 0 -145 113q0 90 96 225 q-80 -43 -147 -43q-37 8 -37 23.5t25.5 46t37 30.5t11.5 -7t-8.5 -15t-8.5 -16q0 -4 8 -5q55 0 161 82t190 182.5t84 149.5q0 31 -37 31q-182 0 -361.5 -79t-320 -205t-261 -281.5t-200.5 -313.5q-170 -336 -170 -522z" />
<glyph unicode="&#x153;" horiz-adv-x="755" d="M-12 61q0 154 177 306.5t294 152.5q57 0 57 -51q0 -43 -12 -82q92 74 196.5 122t151.5 48t47 -31q0 -76 -179 -184.5t-298 -142.5q-70 -100 -70 -156q0 -27 21 -27q25 0 110.5 34t141.5 67l200 127l2 -27q-215 -143 -320.5 -182t-139.5 -39q-57 0 -58 72q0 37 10 77 q-80 -63 -165.5 -104t-125.5 -41t-40 61zM37 45q0 -12 14 -12q43 0 128 61.5t167 145.5q-6 16 -6 54t36 93t105 94q-6 8 -18 8q-76 0 -251 -174t-175 -270zM367 260q120 135 120 201q-37 -23 -78.5 -88.5t-41.5 -108.5v-4zM442 225q102 33 242.5 147.5t140.5 153.5q0 6 -8 6 q-55 0 -172 -96t-203 -211z" />
<glyph unicode="&#x178;" horiz-adv-x="1570" d="M2 -981q0 -10 10.5 -23.5t20.5 -13.5q86 0 297 193.5t427 438.5t466 552q338 221 536 321q16 10 16.5 20.5t-8.5 10.5q-35 0 -499 -295q274 342 438 565q39 49 229.5 290t206.5 257q111 90 158 164q14 20 14 28.5t-10 18.5t-24.5 10t-43.5 -14q-106 -55 -282 -280 q-61 -78 -107 -138l-45 -59q-567 -434 -772 -434q-20 0 -20 14q0 68 101 209t169 217t178 182q266 256 266 287q0 10 -11 18.5t-23 8.5q-35 0 -78 -37t-82 -74t-80 -79t-86 -88t-80 -83t-59 -63l-25 -25q-18 -12 -49 -33.5t-126 -76t-188.5 -96.5t-220.5 -75.5t-235 -33.5 q-14 0 -14 8l12 18q0 10 -20.5 10.5t-80 -26.5t-59.5 -61q0 -23 37 -23q170 0 390 78t355 156l136 75q6 0 6 -4l-45 -71q-131 -215 -131 -308q0 -55 53 -55q172 0 711 365q-279 -387 -664 -873q-420 -281 -715 -547q-162 -145 -256 -283.5t-94 -242.5zM82 -948 q0 174 266 434t664 537q-783 -975 -926 -977q-4 0 -4 6zM1860 1647.5q0 31.5 30.5 60.5t52 29t33 -12.5t11.5 -29t-29 -48t-63.5 -31.5t-34.5 31.5zM2023 1647.5q0 31.5 31 60.5t52.5 29t32.5 -12.5t11 -29t-28.5 -48t-63.5 -31.5t-35 31.5z" />
<glyph unicode="&#x2c6;" horiz-adv-x="1024" d="M238 627v2q0 6 33.5 22.5t97.5 53.5q170 100 187 100t21.5 -19.5t9.5 -50t7 -43.5q6 -29 33 -67l2 -4q0 -6 -16.5 -6.5t-39 36.5t-34.5 78l-64 -29q-190 -84 -213.5 -84t-23.5 11z" />
<glyph unicode="&#x2dc;" horiz-adv-x="1024" d="M377 681q0 7 8 15q45 45 83 45t86 -25.5t78 -25.5t66 43q2 4 10.5 4t8.5 -11t-2 -13q-53 -63 -119 -64q-33 0 -84 22.5t-71.5 22.5t-31 -10t-21.5 -10t-11 7z" />
<glyph unicode="&#x2000;" horiz-adv-x="947" />
<glyph unicode="&#x2001;" horiz-adv-x="1894" />
<glyph unicode="&#x2002;" horiz-adv-x="947" />
<glyph unicode="&#x2003;" horiz-adv-x="1894" />
<glyph unicode="&#x2004;" horiz-adv-x="631" />
<glyph unicode="&#x2005;" horiz-adv-x="473" />
<glyph unicode="&#x2006;" horiz-adv-x="315" />
<glyph unicode="&#x2007;" horiz-adv-x="315" />
<glyph unicode="&#x2008;" horiz-adv-x="236" />
<glyph unicode="&#x2009;" horiz-adv-x="378" />
<glyph unicode="&#x200a;" horiz-adv-x="105" />
<glyph unicode="&#x2010;" horiz-adv-x="1024" d="M186 240q0 16 33 20l47 2q55 0 357 12l239 13q23 0 25 -13q0 -18 -17.5 -29.5t-88 -14.5t-285.5 -3l-277 2q-31 0 -33 11z" />
<glyph unicode="&#x2011;" horiz-adv-x="1024" d="M186 240q0 16 33 20l47 2q55 0 357 12l239 13q23 0 25 -13q0 -18 -17.5 -29.5t-88 -14.5t-285.5 -3l-277 2q-31 0 -33 11z" />
<glyph unicode="&#x2012;" horiz-adv-x="1024" d="M186 240q0 16 33 20l47 2q55 0 357 12l239 13q23 0 25 -13q0 -18 -17.5 -29.5t-88 -14.5t-285.5 -3l-277 2q-31 0 -33 11z" />
<glyph unicode="&#x2013;" horiz-adv-x="849" d="M215 240q0 16 23 20l34 2q53 0 256 12l174 13q16 0 17 -13q0 -18 -12.5 -29.5t-26.5 -11.5l-442 -4q-23 0 -23 11z" />
<glyph unicode="&#x2014;" horiz-adv-x="1353" d="M215 240q0 16 47 20l68 2h59q313 8 453 12l346 13q33 0 35 -13q0 -18 -24.5 -29.5t-53.5 -11.5l-883 -4q-45 0 -47 11z" />
<glyph unicode="&#x2018;" horiz-adv-x="483" d="M446 926q0 35 20.5 71.5t49.5 59.5q57 41 107 53l20 6q20 0 21 -8q0 -4 -15 -10q-25 -4 -83 -39t-58 -74q55 -8 55 -41t-24.5 -57.5t-55.5 -24.5q-37 0 -37 64z" />
<glyph unicode="&#x2019;" horiz-adv-x="573" d="M406 870q0 4 14 11q25 4 83 38.5t58 73.5q-55 8 -55 41t24.5 57.5t55.5 24.5q37 0 37 -63q0 -35 -20.5 -72t-49.5 -59q-57 -41 -107 -54l-20 -6q-20 0 -20 8z" />
<glyph unicode="&#x201a;" horiz-adv-x="288" d="M-31 -139q0 4 15 10q25 4 83 39t58 74q-55 8 -55 40.5t24.5 57t55.5 24.5q37 0 36 -65q0 -33 -20.5 -70t-48.5 -57q-57 -45 -107 -57l-20 -4q-20 0 -21 8z" />
<glyph unicode="&#x201c;" horiz-adv-x="647" d="M446 926q0 35 20.5 71.5t49.5 59.5q57 41 107 53l20 6q20 0 21 -8q0 -4 -15 -10q-25 -4 -83 -39t-58 -74q55 -8 55 -41t-24.5 -57.5t-55.5 -24.5q-37 0 -37 64zM610 926q0 35 20.5 71.5t49.5 59.5q57 41 106 53l21 6q20 0 20 -8q0 -4 -14 -10q-25 -4 -83 -39t-58 -74 q55 -8 55 -41t-24.5 -57.5t-55.5 -24.5q-37 0 -37 64z" />
<glyph unicode="&#x201d;" horiz-adv-x="737" d="M406 870q0 4 14 11q25 4 83 38.5t58 73.5q-55 8 -55 41t24.5 57.5t55.5 24.5q37 0 37 -63q0 -35 -20.5 -72t-49.5 -59q-57 -41 -107 -54l-20 -6q-20 0 -20 8zM569 870q0 4 15 11q25 4 83 38.5t58 73.5q-55 8 -55 41t24.5 57.5t55.5 24.5q37 0 36 -63q0 -35 -20.5 -72 t-48.5 -59q-57 -41 -107 -54l-20 -6q-20 0 -21 8z" />
<glyph unicode="&#x201e;" horiz-adv-x="452" d="M-31 -139q0 4 15 10q25 4 83 39t58 74q-55 8 -55 40.5t24.5 57t55.5 24.5q37 0 36 -65q0 -33 -20.5 -70t-48.5 -57q-57 -45 -107 -57l-20 -4q-20 0 -21 8zM133 -139q0 4 14 10q25 4 83.5 39t58.5 74q-55 8 -55.5 40.5t24 57t55.5 24.5q37 0 37 -65q0 -33 -20.5 -70 t-48.5 -57q-57 -45 -107 -57l-20 -4q-20 0 -21 8z" />
<glyph unicode="&#x2022;" horiz-adv-x="714" d="M313 211q0 59 64.5 118.5t124.5 59.5q31 0 52 -23.5t21 -59.5t-58 -101.5t-144 -65.5q-27 0 -43.5 21.5t-16.5 50.5z" />
<glyph unicode="&#x2026;" horiz-adv-x="591" d="M66 18.5q0 30.5 28.5 58t50 27.5t31.5 -12t10 -27.5t-27.5 -46t-60 -30.5t-32.5 30.5zM223 18.5q0 30.5 30 58t50.5 27.5t30.5 -12t10 -27.5t-26.5 -46t-60.5 -30.5t-34 30.5zM377 18.5q0 30.5 29.5 58t51 27.5t32 -12t10.5 -27.5t-28 -46t-61.5 -30.5t-33.5 30.5z" />
<glyph unicode="&#x202f;" horiz-adv-x="378" />
<glyph unicode="&#x2039;" horiz-adv-x="790" d="M203 272q0 31 57 41l361 54q12 0 12 -7.5t-10 -11.5l-344 -51q-29 -6 -29 -18q0 -7 12 -13l307 -147q10 -6 11 -15q0 -18 -29 -18l-272 131q-6 2 -15.5 7t-13.5 7t-11.5 5.5t-11.5 5.5t-8 5t-7 6l-5 5q-4 8 -4 14z" />
<glyph unicode="&#x203a;" horiz-adv-x="790" d="M205 124q0 7 10 11l344 51q29 6 29 19q-1 6 -13 12l-307 148q-10 6 -10 14q0 18 29 18l272 -131q6 -2 15.5 -7t13.5 -7t11 -5t11 -5t8.5 -5.5t7.5 -6.5l5 -5q4 -8 4 -14q0 -31 -57 -41l-361 -53q-12 0 -12 7z" />
<glyph unicode="&#x205f;" horiz-adv-x="473" />
<glyph unicode="&#x20ac;" horiz-adv-x="964" d="M59 475q0 35 51.5 35t88.5 -2q12 20 41 61h-107q-18 0 -18 15.5t14.5 24.5t28.5 9l116 -2q158 199 393.5 326t524.5 127q135 0 135 -59q0 -74 -172 -179.5t-295 -109.5q-49 0 -49 29q0 18 44 56t61.5 38t17.5 -7.5t-25.5 -31t-25.5 -30.5t4 -7q68 2 235.5 93t167.5 145 q0 39 -114 38q-227 0 -439.5 -121.5t-369.5 -308.5l235 -10q41 0 41 -9t-22.5 -18.5t-45.5 -9.5l-245 2q-4 -6 -45 -63l268 -10q41 0 41 -9.5t-24.5 -18.5t-49.5 -9l-266 4q-125 -199 -125 -342.5t141 -143.5q205 0 510 191q10 8 24.5 8t14.5 -5t-8 -11 q-145 -96 -305 -158.5t-256 -62.5q-180 0 -180 194q0 147 102 330h-94q-18 0 -19 12z" />
<glyph unicode="&#x2122;" horiz-adv-x="1566" d="M285 539q0 37 146.5 220t291.5 324q-68 6 -131.5 54.5t-111.5 48.5t-95 -49.5t-47 -79.5q0 -10 15.5 -10t49 35.5t42 54t10.5 18.5q6 0 6 -4q0 -23 -46 -71t-74 -48t-28 21q0 41 62.5 100t140.5 59q29 0 113 -53t116 -53q141 135 191 135q20 0 20 -14q0 -31 -61 -83 t-131 -61q-125 -135 -266.5 -316t-141.5 -204q0 -4 4 -4l19 12q2 0 2 -6t-28.5 -26.5t-37 -20.5t-19.5 7t-11 14zM784 1108q55 8 106.5 50t51.5 65q0 6 -8 6q-33 0 -150 -121zM788 635q0 12 109 143q332 395 332 482q0 27 -17 26q-86 0 -183 -87t-154.5 -183t-57.5 -139 q0 -16 12 -17q29 0 89.5 45t107.5 90l47 47q0 2 4 2t4 -4v-2q-78 -78 -151.5 -134t-106.5 -56q-29 0 -28.5 40t34 107.5t88 135t134 116.5t157.5 49q16 0 31.5 -11t15.5 -36q0 -104 -315 -477l231 207q158 137 174.5 151.5t20.5 18.5q10 10 20.5 10t10.5 -17.5t-63.5 -109.5 t-128 -177t-64.5 -87l2 -2q49 43 196 182q356 334 377 334q10 0 10 -12q0 -53 -243 -344q-252 -303 -297 -374t-45 -82t3 -11t23 8q57 29 72 43q16 16 16 6q-6 -12 -55 -39.5t-68.5 -27.5t-19.5 12q0 51 94 186q131 186 342 418q158 186 158 192.5t-3 6.5t-303 -276.5 t-384 -356.5q-8 -8 -25.5 -8t-17.5 6t13 21.5t64.5 79t101.5 123.5t101 126q117 141 117 156l2 6q-465 -410 -563 -516z" />
<glyph unicode="&#x25fc;" horiz-adv-x="542" d="M0 0v543h543v-543h-543z" />
<glyph unicode="&#xfb01;" horiz-adv-x="712" d="M-539 -631q0 76 387.5 590t819.5 1002.5t532 488.5q18 0 19 -16q0 -84 -115 -238t-281 -311q-358 -348 -571 -502l-131 -164q16 12 29 12q33 0 32.5 -47t-43.5 -145q76 37 162 90l178 115q115 158 264 309q12 16 27 16h4q20 -2 42 -4t22 -9t-13 -24q-82 -82 -221 -241 q-201 -229 -201 -256q0 -8 13.5 -8t105.5 54t174 107l84 56l2 -27q-330 -219 -401 -219q-25 0 -25 36t84 156q-225 -141 -315 -178q-109 -229 -303.5 -449t-337.5 -220q-23 0 -23 26zM-496 -621q0 -6 9 -6q102 0 267 201t290 426q-20 8 -20.5 60.5t42.5 123.5 q-588 -735 -588 -805zM78 68.5q0 -31.5 6 -41.5q70 126 70 159q0 8 -4 9q-29 0 -50.5 -47.5t-21.5 -79zM332 481q207 150 521 483t314 435q0 4 -6 4q-72 0 -829 -922zM887 713.5q0 31.5 30.5 60.5t52 29t33 -12.5t11.5 -29t-29 -48t-63.5 -31.5t-34.5 31.5z" />
<glyph unicode="&#xfb02;" horiz-adv-x="780" d="M-539 -631q0 76 387.5 590t819.5 1002.5t532 488.5q18 0 19 -16q0 -84 -115 -238t-281 -311q-358 -348 -571 -502l-131 -164q16 12 29 12q33 0 32.5 -47t-43.5 -145q76 37 162 90l137 86q104 201 359.5 483.5t498 484t328.5 201.5q18 0 18 -22q0 -98 -439 -523t-697 -606 q-90 -129 -90 -186q0 -18 8 -18q84 0 301 135l123 80l2 -27q-51 -33 -117 -74q-238 -147 -330 -147q-25 0 -24.5 46t39.5 134q-197 -125 -293 -164q-109 -229 -303.5 -449t-337.5 -220q-23 0 -23 26zM-496 -621q0 -6 9 -6q102 0 267 201t290 426q-20 8 -20.5 60.5 t42.5 123.5q-588 -735 -588 -805zM78 68.5q0 -31.5 6 -41.5q70 126 70 159q0 8 -4 9q-29 0 -50.5 -47.5t-21.5 -79zM332 481q207 150 521 483t314 435q0 4 -6 4q-72 0 -829 -922zM539 281q188 143 619 561.5t431 498.5q0 4 -4 7q-61 0 -452.5 -393.5t-593.5 -673.5z" />
</font>
</defs>
</svg>
